<?xml version="1.0" standalone="no"?>
<!DOCTYPE svg PUBLIC "-//W3C//DTD SVG 1.1//EN" "http://www.w3.org/Graphics/SVG/1.1/DTD/svg11.dtd" >
<svg xmlns="http://www.w3.org/2000/svg" xmlns:xlink="http://www.w3.org/1999/xlink" version="1.1">
<metadata>
Created by FontForge 20170731 at Sat Mar 15 23:04:06 2014
 By Aleksey,,,
Copyright (c) 2013 by Gayane Bagdasaryan, Dmitry Rastvortsev. All rights reserved.
</metadata>
<defs>
<font id="BrutalType-ExtraBold" horiz-adv-x="622" >
  <font-face 
    font-family="Brutal Type"
    font-weight="800"
    font-stretch="normal"
    units-per-em="1000"
    panose-1="2 0 6 3 2 0 0 2 0 4"
    ascent="805"
    descent="-195"
    x-height="526"
    cap-height="700"
    bbox="-44 -284 1125 958"
    underline-thickness="50"
    underline-position="-200"
    unicode-range="U+0020-FB02"
  />
<missing-glyph horiz-adv-x="287" 
 />
    <glyph glyph-name="fi" unicode="fi" horiz-adv-x="652" 
d="M575 0h-142v403h-204v-403h-142v403h-75v123h75q0 86 58 134.5t156 48.5q4 0 38 -2v-121h-24q-86 0 -86 -60h346v-526zM575 595h-142v110h142v-110z" />
    <glyph glyph-name="fl" unicode="fl" horiz-adv-x="652" 
d="M229 0h-142v403h-75v123h75q0 86 58 134.5t156 48.5q4 0 38 -2v-121h-24q-86 0 -86 -60h102v-123h-102v-403zM575 0h-142v705h142v-705z" />
    <glyph glyph-name=".notdef" horiz-adv-x="287" 
 />
    <glyph glyph-name=".null" horiz-adv-x="0" 
 />
    <glyph glyph-name="nonmarkingreturn" horiz-adv-x="333" 
 />
    <glyph glyph-name="space" unicode=" " horiz-adv-x="230" 
 />
    <glyph glyph-name="exclam" unicode="!" horiz-adv-x="321" 
d="M232 220h-142v480h142v-480zM232 0h-142v142h142v-142z" />
    <glyph glyph-name="quotedbl" unicode="&#x22;" horiz-adv-x="441" 
d="M163 442h-84l-29 213v50h142v-50zM363 442h-85l-29 213v50h142v-50z" />
    <glyph glyph-name="numbersign" unicode="#" horiz-adv-x="695" 
d="M213 0h-126v51l22 103h-74v128h102l29 136h-84v128h111l34 154h126v-51l-22 -103h119l33 154h126v-51l-23 -103h74v-128h-101l-28 -136h83v-128h-111l-33 -154h-126v51l22 103h-120zM303 418l-30 -136h120l29 136h-119z" />
    <glyph glyph-name="dollar" unicode="$" horiz-adv-x="598" 
d="M42 227h142q0 -114 118 -114q44 0 68.5 21t24.5 55q0 30 -20 45q-17 14 -45 27l-95 43q-93 43 -135 85q-41 43 -41 121t46.5 132t125.5 69v91h141v-95q68 -17 114 -76q48 -59 48 -152h-142q0 108 -100 108q-39 0 -63.5 -19.5t-24.5 -51.5q0 -34 25 -53q30 -19 66 -35
l11 -5l44 -20q35 -16 44 -21l38 -20q24 -12 37 -23q43 -34 52 -57q19 -42 19 -80q0 -82 -42.5 -138.5t-125.5 -74.5v-108h-141v107q-86 13 -137.5 75.5t-51.5 163.5z" />
    <glyph glyph-name="percent" unicode="%" horiz-adv-x="799" 
d="M233 495v82q0 15 -10.5 26t-25.5 11t-25.5 -11t-10.5 -26v-82q0 -15 10.5 -26t25.5 -11t25.5 11t10.5 26zM37 515v42q0 77 42 117.5t118 40.5t118 -40.5t42 -117.5v-42q0 -77 -42 -117.5t-118 -40.5t-118 40.5t-42 117.5zM639 123v82q0 15 -10.5 26t-25.5 11t-25.5 -11
t-10.5 -26v-82q0 -15 10.5 -26t25.5 -11t25.5 11t10.5 26zM443 143v42q0 77 42 117.5t118 40.5t118 -40.5t42 -117.5v-42q0 -77 -42 -117.5t-118 -40.5t-118 40.5t-42 117.5zM236 0h-80v51l411 649h80v-51z" />
    <glyph glyph-name="ampersand" unicode="&#x26;" horiz-adv-x="624" 
d="M528 0h-235q-128 0 -187 49.5t-59 162.5q0 56 29 100t74 62q-76 42 -76 144q0 90 55.5 136t156.5 46h100v-123h-81q-38 2 -57.5 -11.5t-22.5 -59.5q0 -35 17 -52.5t45 -17.5h99l61 84h81v-84h69v-123h-69v-313zM280 127h106v186h-106q-36 0 -59 -24.5t-23 -69.5
q0 -44 23 -68t59 -24z" />
    <glyph glyph-name="quotesingle" unicode="'" horiz-adv-x="242" 
d="M163 442h-84l-29 213v50h142v-50z" />
    <glyph glyph-name="parenleft" unicode="(" horiz-adv-x="319" 
d="M273 -30v-129q-90 0 -138 50t-48 146v545q0 97 48 147.5t138 50.5v-129q-23 0 -36 -19.5t-13 -48.5v-545q0 -29 13 -48.5t36 -19.5z" />
    <glyph glyph-name="parenright" unicode=")" horiz-adv-x="319" 
d="M46 -159v129q23 0 36 19.5t13 48.5v545q0 29 -13 48.5t-36 19.5v129q90 0 138 -50.5t48 -147.5v-545q0 -96 -48 -146t-138 -50z" />
    <glyph glyph-name="asterisk" unicode="*" horiz-adv-x="463" 
d="M287 333h-111l9 107l-86 -63l-56 98l97 44l-97 44l56 98l86 -63l-9 107h111l-10 -107l88 63l55 -98l-98 -44l98 -44l-55 -98l-88 63z" />
    <glyph glyph-name="plus" unicode="+" horiz-adv-x="579" 
d="M354 90h-129v164h-162v118h162v164h129v-164h162v-118h-162v-164z" />
    <glyph glyph-name="comma" unicode="," horiz-adv-x="279" 
d="M133 -123h-100l16 100l30 168h140v-60z" />
    <glyph glyph-name="hyphen" unicode="-" horiz-adv-x="445" 
d="M389 249h-332v128h332v-128z" />
    <glyph glyph-name="period" unicode="." horiz-adv-x="288" 
d="M221 0h-154v145h154v-145z" />
    <glyph glyph-name="slash" unicode="/" horiz-adv-x="460" 
d="M152 -100h-115v51l271 829h115v-51z" />
    <glyph glyph-name="zero" unicode="0" horiz-adv-x="618" 
d="M309 113q49 0 74.5 28.5t25.5 76.5v263q0 49 -25.5 77.5t-74.5 28.5q-47 0 -73.5 -29.5t-26.5 -76.5v-263q0 -47 26 -76t74 -29zM308 -15q-113 0 -177 63t-64 179v246q0 116 64 179t177 63q115 0 179 -63t64 -179v-246q0 -116 -64 -179t-179 -63z" />
    <glyph glyph-name="one" unicode="1" horiz-adv-x="340" 
d="M253 0h-142v507h-66v76l182 117h26v-700z" />
    <glyph glyph-name="two" unicode="2" horiz-adv-x="562" 
d="M506 0h-462v116l211 212q71 71 88 101q19 31 19 70t-21.5 63.5t-65.5 24.5q-95 0 -96 -117h-135q0 113 63 179q65 66 167 66q112 0 170 -64q60 -63 60 -151q0 -72 -30 -123q-31 -52 -112 -128l-126 -121h270v-128z" />
    <glyph glyph-name="three" unicode="3" horiz-adv-x="594" 
d="M294 -15q-114 0 -180 66t-67 184h136q5 -122 117 -122q47 0 71.5 25t24.5 68t-28.5 67t-80.5 24h-41v129h31q97 0 97 82q0 36 -22 57.5t-60 21.5q-96 0 -100 -117h-136q0 114 62.5 179.5t170.5 65.5q107 0 165 -55q59 -56 59 -140q0 -95 -76 -152q44 -19 72.5 -64.5
t28.5 -101.5q0 -102 -64 -159.5t-180 -57.5z" />
    <glyph glyph-name="four" unicode="4" horiz-adv-x="559" 
d="M466 0h-142v124h-297v109l224 467h125v-51l-189 -397h137v159h142v-159h77v-128h-77v-124z" />
    <glyph glyph-name="five" unicode="5" horiz-adv-x="593" 
d="M291 -15q-103 0 -168 56t-75 157h138q5 -38 34.5 -61.5t73.5 -23.5q101 0 101 130q0 56 -25.5 88.5t-71.5 32.5q-64 0 -94 -51h-136l38 387h392v-128h-282l-13 -121q53 29 121 29q90 0 151 -58q62 -57 62 -179q0 -123 -66 -190.5t-180 -67.5z" />
    <glyph glyph-name="six" unicode="6" horiz-adv-x="591" 
d="M294 700h130v-51l-131 -199q26 2 35 2q95 0 155 -54q61 -54 61 -163q0 -118 -66.5 -184t-181.5 -66q-112 0 -180 63q-68 65 -68 172q0 94 68 201zM374 308q-27 31 -78 31t-79 -31q-27 -30 -27 -82t27 -83q29 -30 79 -30q51 0 78 30q28 31 28 83q0 53 -28 82z" />
    <glyph glyph-name="seven" unicode="7" horiz-adv-x="546" 
d="M276 0h-128v51l202 521h-185v-77h-131v205h462v-120z" />
    <glyph glyph-name="eight" unicode="8" horiz-adv-x="620" 
d="M57 199q0 55 28 101t72 67q-83 59 -83 152q0 83 63 139q63 57 173 57t173 -57q63 -56 63 -139q0 -93 -81 -152q43 -21 71 -67t28 -101q0 -100 -68 -157t-186 -57t-185.5 57t-67.5 157zM420 213q0 44 -31 70.5t-79 26.5t-79 -26.5t-31 -70.5t29 -72t81 -28t81 28t29 72z
M405 507q0 39 -24 62t-71 23t-71 -23t-24 -62q0 -44 26 -66.5t69 -22.5t69 22.5t26 66.5z" />
    <glyph glyph-name="nine" unicode="9" horiz-adv-x="591" 
d="M297 0h-130v51l131 199q-30 -2 -35 -2q-95 0 -156 54q-60 54 -60 163q0 118 66.5 184t181.5 66q113 0 180 -64q68 -63 68 -171q0 -94 -68 -201zM216 391q28 -30 79 -30t78 30q28 31 28 83q0 53 -28 82q-27 31 -78 31t-79 -31q-27 -30 -27 -82t27 -83z" />
    <glyph glyph-name="colon" unicode=":" horiz-adv-x="288" 
d="M221 0h-154v145h154v-145zM221 381h-154v145h154v-145z" />
    <glyph glyph-name="semicolon" unicode=";" horiz-adv-x="292" 
d="M133 -123h-100l16 100l30 168h140v-60zM222 381h-154v145h154v-145z" />
    <glyph glyph-name="less" unicode="&#x3c;" horiz-adv-x="539" 
d="M476 78h-67l-346 177v116l346 177h67v-100l-272 -135l272 -135v-100z" />
    <glyph glyph-name="equal" unicode="=" horiz-adv-x="580" 
d="M517 146h-454v118h454v-118zM517 362h-454v118h454v-118z" />
    <glyph glyph-name="greater" unicode="&#x3e;" horiz-adv-x="539" 
d="M476 371v-116l-346 -177h-67v100l272 135l-272 135v100h67z" />
    <glyph glyph-name="question" unicode="?" horiz-adv-x="528" 
d="M320 220h-142v117l104 74q39 29 53 48t14 51q0 35 -22.5 56t-62.5 21q-48 0 -75 -30t-27 -82h-135q0 113 67 176q67 64 171 64q108 0 167 -59t59 -143q0 -60 -32 -108q-9 -16 -35 -40q-22 -21 -36 -30q-15 -11 -40 -27l-28 -19v-69zM320 0h-142v142h142v-142z" />
    <glyph glyph-name="at" unicode="@" horiz-adv-x="990" 
d="M529 -151h-25q-194 0 -315 121q-122 122 -122 312q0 195 121 313q122 120 316 120q180 0 299 -108q120 -107 120 -285q0 -111 -59 -185q-58 -73 -155 -73q-85 0 -132 53q-62 -53 -123 -53q-69 0 -111 38.5t-42 111.5v137q0 73 42 111.5t111 38.5q64 0 123 -54l35 45h68
v-252q0 -29 14 -46t39 -17q73 0 73 145q0 134 -87 210q-87 78 -215 78q-142 0 -231 -89t-89 -238t89 -238q89 -88 231 -88h25v-108zM423 326v-87q0 -62 58 -62q42 0 77 35v141q-35 35 -77 35q-58 0 -58 -62z" />
    <glyph glyph-name="A" unicode="A" horiz-adv-x="661" 
d="M160 0h-143v51l237 649h152l238 -649v-51h-153l-52 159h-224zM327 492l-66 -204h131z" />
    <glyph glyph-name="B" unicode="B" horiz-adv-x="670" 
d="M412 0h-325v700h296q101 0 156.5 -50t55.5 -145q0 -99 -75 -142q52 -25 78 -63.5t26 -101.5q0 -97 -55.5 -147.5t-156.5 -50.5zM242 281v-146h164q26 0 43.5 19t17.5 54t-17.5 54t-43.5 19h-164zM242 565v-155h131q28 0 46.5 20t18.5 57t-18.5 57.5t-46.5 20.5h-131z" />
    <glyph glyph-name="C" unicode="C" horiz-adv-x="661" 
d="M343 -15q-134 0 -205 65.5t-71 186.5v226q0 121 71 186.5t205 65.5q114 0 188 -62t74 -185v-10h-156v10q0 52 -32 78.5t-84 26.5q-111 0 -111 -99v-248q0 -99 111 -99q53 0 84.5 25.5t31.5 79.5v10h156v-10q0 -124 -74 -186q-73 -61 -188 -61z" />
    <glyph glyph-name="D" unicode="D" horiz-adv-x="691" 
d="M242 565v-430h101q58 0 92 29t34 72v228q0 43 -34 72t-92 29h-101zM343 0h-256v700h256q132 0 206.5 -63t74.5 -177v-220q0 -114 -74.5 -177t-206.5 -63z" />
    <glyph glyph-name="E" unicode="E" horiz-adv-x="607" 
d="M550 0h-463v700h461v-135h-306v-150h260v-129h-260v-151h308v-135z" />
    <glyph glyph-name="F" unicode="F" horiz-adv-x="593" 
d="M242 0h-155v700h469v-135h-314v-160h266v-129h-266v-276z" />
    <glyph glyph-name="G" unicode="G" horiz-adv-x="691" 
d="M326 -15q-119 0 -190 68q-69 69 -69 184v226q0 119 73.5 185.5t206.5 66.5q119 0 193 -64q75 -65 75 -180h-156q0 47 -33 74.5t-88 27.5q-57 0 -86.5 -27t-29.5 -76v-233q0 -49 30.5 -79.5t83.5 -30.5q80 0 128 65v62h-120v129h271v-383h-83l-32 62q-26 -35 -73 -56
t-101 -21z" />
    <glyph glyph-name="H" unicode="H" horiz-adv-x="720" 
d="M242 0h-155v700h155v-282h236v282h155v-700h-155v283h-236v-283z" />
    <glyph glyph-name="I" unicode="I" horiz-adv-x="329" 
d="M242 0h-155v700h155v-700z" />
    <glyph glyph-name="J" unicode="J" horiz-adv-x="588" 
d="M265 -15q-248 0 -248 225v32h155v-32q0 -83 93 -83q41 0 66 22t25 67v484h155v-490q0 -117 -68 -171q-67 -54 -178 -54z" />
    <glyph glyph-name="K" unicode="K" horiz-adv-x="652" 
d="M242 0h-155v700h155v-282h61l169 282h140v-51l-178 -290l193 -308v-51h-150l-171 282h-64v-282z" />
    <glyph glyph-name="L" unicode="L" horiz-adv-x="570" 
d="M553 0h-466v700h155v-565h311v-135z" />
    <glyph glyph-name="M" unicode="M" horiz-adv-x="817" 
d="M237 0h-150v700h150l175 -293l175 293h143v-700h-150v425l-124 -212h-96l-123 212v-425z" />
    <glyph glyph-name="N" unicode="N" horiz-adv-x="720" 
d="M242 0h-155v700h142l249 -411v411h155v-700h-142l-249 411v-411z" />
    <glyph glyph-name="O" unicode="O" horiz-adv-x="696" 
d="M474 231v238q0 45 -33 74.5t-93 29.5t-93 -29.5t-33 -74.5v-238q0 -45 33 -74.5t93 -29.5t93 29.5t33 74.5zM629 461v-223q0 -119 -76 -186t-205 -67t-205 67t-76 186v223q0 119 75.5 186.5t205.5 67.5t205.5 -67.5t75.5 -186.5z" />
    <glyph glyph-name="P" unicode="P" horiz-adv-x="643" 
d="M242 0h-155v700h314q93 0 146.5 -59t53.5 -161t-53.5 -160.5t-146.5 -58.5h-159v-261zM242 565v-169h130q31 0 51.5 22t20.5 62t-20.5 62.5t-51.5 22.5h-130z" />
    <glyph glyph-name="Q" unicode="Q" horiz-adv-x="696" 
d="M628 -119h-150l-85 105q-4 0 -21.5 -0.5t-23.5 -0.5q-129 0 -205 67t-76 186v223q0 119 75.5 186.5t205.5 67.5q132 0 206.5 -67t74.5 -187v-223q0 -130 -90 -198l89 -108v-51zM348 127q60 0 93 29.5t33 74.5v238q0 45 -33 74.5t-93 29.5t-93 -29.5t-33 -74.5v-238
q0 -45 33 -74.5t93 -29.5z" />
    <glyph glyph-name="R" unicode="R" horiz-adv-x="680" 
d="M242 0h-155v700h304q107 0 164 -57t57 -163q0 -144 -112 -202l132 -227v-51h-151l-146 260h-93v-260zM242 565v-176h123q46 0 68 21t22 68q0 46 -22 66.5t-68 20.5h-123z" />
    <glyph glyph-name="S" unicode="S" horiz-adv-x="652" 
d="M321 -15q-121 0 -200 63t-79 179h155q0 -37 23 -62q39 -38 115 -38q49 0 75.5 18t26.5 49q0 29 -28 44q-29 17 -106 42l-56 19q-75 25 -126 63q-62 48 -62 138q0 98 70 156q71 59 192 59q119 0 192 -61t73 -178h-156q0 46 -31.5 71.5t-81.5 25.5q-48 0 -74.5 -17
t-26.5 -48q0 -25 25 -45q7 -7 39 -18l51 -18l52 -18q109 -38 160 -84t51 -123q0 -100 -71 -158.5t-202 -58.5z" />
    <glyph glyph-name="T" unicode="T" horiz-adv-x="574" 
d="M365 0h-155v565h-193v135h540v-135h-192v-565z" />
    <glyph glyph-name="U" unicode="U" horiz-adv-x="700" 
d="M468 223v477h155v-471q0 -114 -73 -179t-200 -65t-200 65t-73 179v471h155v-477q0 -42 30.5 -69t87.5 -27t87.5 27t30.5 69z" />
    <glyph glyph-name="V" unicode="V" horiz-adv-x="662" 
d="M408 0h-153l-238 649v51h148l169 -492l164 492h147v-51z" />
    <glyph glyph-name="W" unicode="W" horiz-adv-x="848" 
d="M323 0h-145l-141 649v51h151l93 -452l96 291h97l99 -294l91 455h147v-51l-142 -649h-144l-101 301z" />
    <glyph glyph-name="X" unicode="X" horiz-adv-x="667" 
d="M175 0h-148v51l211 314l-189 284v51h158l127 -213l136 213h149v-51l-191 -283l213 -315v-51h-158l-153 241z" />
    <glyph glyph-name="Y" unicode="Y" horiz-adv-x="620" 
d="M388 0h-156v277l-225 372v51h153l151 -278l159 278h143v-51l-225 -366v-283z" />
    <glyph glyph-name="Z" unicode="Z" horiz-adv-x="595" 
d="M559 0h-522v134l332 431h-317v135h495v-133l-333 -432h345v-135z" />
    <glyph glyph-name="bracketleft" unicode="[" horiz-adv-x="342" 
d="M290 -160h-203v940h203v-129h-66v-682h66v-129z" />
    <glyph glyph-name="backslash" unicode="\" horiz-adv-x="460" 
d="M152 780l271 -829v-51h-115l-271 829v51h115z" />
    <glyph glyph-name="bracketright" unicode="]" horiz-adv-x="342" 
d="M52 780h203v-940h-203v129h66v682h-66v129z" />
    <glyph glyph-name="asciicircum" unicode="^" horiz-adv-x="544" 
d="M184 387h-121v51l149 267h118l151 -267v-51h-121l-90 157z" />
    <glyph glyph-name="underscore" unicode="_" horiz-adv-x="566" 
d="M571 -143h-576v118h576v-118z" />
    <glyph glyph-name="grave" unicode="`" horiz-adv-x="307" 
d="M250 590h-114l-79 91v49h128z" />
    <glyph glyph-name="a" unicode="a" horiz-adv-x="571" 
d="M499 0h-82l-39 49q-64 -61 -159 -61q-74 0 -126 41q-51 42 -51 117q0 83 53.5 127t158.5 44h103v29q0 64 -76 64t-76 -52h-139q0 83 55.5 131.5t159.5 48.5t161 -49t57 -133v-356zM249 113q66 0 108 46v58h-103q-70 0 -70 -52q0 -24 17 -38t48 -14z" />
    <glyph glyph-name="b" unicode="b" horiz-adv-x="600" 
d="M322 116q29 0 51.5 20.5t22.5 54.5v144q0 34 -22.5 54.5t-51.5 20.5q-53 0 -103 -50v-194q50 -50 103 -50zM197 49l-39 -49h-81v705h142v-210q50 43 132 43q84 0 135.5 -50t51.5 -142v-165q0 -93 -51.5 -143t-135.5 -50q-90 0 -154 61z" />
    <glyph glyph-name="c" unicode="c" horiz-adv-x="545" 
d="M279 -12q-103 0 -164 52.5t-61 142.5v161q0 90 61 142t164 52q100 0 158.5 -53t58.5 -146v-6h-142v6q0 33 -20.5 52t-59.5 19q-78 0 -78 -64v-166q0 -64 78 -64q39 0 59.5 18t20.5 51v11h142v-7q0 -93 -61 -147q-60 -54 -156 -54z" />
    <glyph glyph-name="d" unicode="d" horiz-adv-x="600" 
d="M523 0h-81l-39 49q-64 -61 -154 -61q-84 0 -135.5 50t-51.5 143v165q0 95 53 143q52 49 134 49t132 -43v210h142v-705zM278 116q53 0 103 50v194q-50 50 -103 50q-29 0 -51.5 -20.5t-22.5 -54.5v-144q0 -34 22.5 -54.5t51.5 -20.5z" />
    <glyph glyph-name="e" unicode="e" horiz-adv-x="559" 
d="M285 -12q-107 0 -169 51t-62 142v163q0 90 62.5 142t168.5 52q101 0 161 -51t60 -141v-130h-310v-34q0 -31 22.5 -48.5t66.5 -17.5q63 0 78 44h142q-8 -81 -66 -126.5t-154 -45.5zM196 346v-27h168v27q0 30 -21.5 47t-62.5 17t-62.5 -17t-21.5 -47z" />
    <glyph glyph-name="f" unicode="f" horiz-adv-x="356" 
d="M229 0h-142v403h-75v123h75q0 86 58 134.5t156 48.5q4 0 38 -2v-121h-24q-86 0 -86 -60h102v-123h-102v-403z" />
    <glyph glyph-name="g" unicode="g" horiz-adv-x="600" 
d="M75 5h142q0 -21 18.5 -35t59.5 -14q86 0 86 76v55q-50 -43 -132 -43q-84 0 -135.5 50t-51.5 142v110q0 92 51.5 142t135.5 50q86 0 151 -59l42 47h81v-493q0 -98 -60.5 -151.5t-166.5 -53.5q-104 0 -162.5 47t-58.5 130zM278 172q53 0 103 50v138q-50 50 -103 50
q-29 0 -51.5 -20.5t-22.5 -54.5v-87q0 -34 22.5 -55t51.5 -21z" />
    <glyph glyph-name="h" unicode="h" horiz-adv-x="605" 
d="M219 0h-142v705h142v-210q55 43 131 43q86 0 134.5 -54.5t48.5 -150.5v-333h-142v325q0 41 -20 63t-53 22q-55 0 -99 -50v-360z" />
    <glyph glyph-name="i" unicode="i" horiz-adv-x="296" 
d="M219 0h-142v526h142v-526zM219 595h-142v110h142v-110z" />
    <glyph glyph-name="j" unicode="j" horiz-adv-x="296" 
d="M77 24v502h142v-503q0 -78 -46 -136q-47 -59 -140 -59q-17 0 -37 2v126h21q60 0 60 68zM219 595h-142v110h142v-110z" />
    <glyph glyph-name="k" unicode="k" horiz-adv-x="558" 
d="M219 0h-142v705h142v-373h35l133 194h122v-66l-128 -186l141 -208v-66h-126l-142 209h-35v-209z" />
    <glyph glyph-name="l" unicode="l" horiz-adv-x="296" 
d="M219 0h-142v705h142v-705z" />
    <glyph glyph-name="m" unicode="m" horiz-adv-x="879" 
d="M513 362v-362h-142v337q0 35 -17 54t-47 19q-26 0 -50.5 -13.5t-37.5 -34.5v-362h-142v526h81l39 -49q62 61 143 61q96 0 143 -71q63 71 152 71q82 0 127 -51.5t45 -138.5v-348h-142v337q0 35 -17 54t-47 19q-26 0 -50.5 -13.5t-37.5 -34.5z" />
    <glyph glyph-name="n" unicode="n" horiz-adv-x="605" 
d="M219 0h-142v526h81l39 -49q64 61 153 61q86 0 134.5 -54.5t48.5 -150.5v-333h-142v325q0 41 -20 63t-53 22q-55 0 -99 -50v-360z" />
    <glyph glyph-name="o" unicode="o" horiz-adv-x="569" 
d="M285 116q41 0 64.5 20t23.5 52v149q0 33 -23.5 53t-64.5 20q-43 0 -66 -20.5t-23 -52.5v-149q0 -32 23 -52t66 -20zM54 183v161q0 88 61 141t170 53t169.5 -53t60.5 -141v-161q0 -88 -60.5 -141.5t-169.5 -53.5t-170 53.5t-61 141.5z" />
    <glyph glyph-name="p" unicode="p" horiz-adv-x="600" 
d="M77 526h81l39 -49q67 61 154 61q84 0 135.5 -50t51.5 -142v-165q0 -94 -53 -144q-52 -49 -134 -49t-132 43v-191h-142v686zM322 116q29 0 51.5 20.5t22.5 54.5v144q0 34 -22.5 54.5t-51.5 20.5q-53 0 -103 -50v-194q50 -50 103 -50z" />
    <glyph glyph-name="q" unicode="q" horiz-adv-x="600" 
d="M403 477l39 49h81v-686h-142v191q-50 -43 -132 -43q-84 0 -135.5 50t-51.5 143v165q0 92 51.5 142t135.5 50q87 0 154 -61zM278 116q53 0 103 50v194q-50 50 -103 50q-29 0 -51.5 -20.5t-22.5 -54.5v-144q0 -34 22.5 -54.5t51.5 -20.5z" />
    <glyph glyph-name="r" unicode="r" horiz-adv-x="391" 
d="M77 526h81l39 -49q52 61 131 61h38v-135h-38q-75 0 -109 -43v-360h-142v526z" />
    <glyph glyph-name="s" unicode="s" horiz-adv-x="549" 
d="M279 -12q-105 0 -169 54t-65 139h138q13 -67 109 -67q69 0 69 37q0 28 -46 40l-129 33q-128 33 -128 142q0 81 56 126.5t157 45.5q97 0 157 -49.5t63 -133.5h-137q-16 57 -92 57q-66 0 -66 -38q0 -22 42 -32l138 -35q123 -31 123 -145q0 -81 -59 -127.5t-161 -46.5z" />
    <glyph glyph-name="t" unicode="t" horiz-adv-x="392" 
d="M350 0h-59q-199 0 -199 207v196h-75v123h75v110h142v-110h116v-123h-116v-196q0 -47 17.5 -65.5t54.5 -18.5h44v-123z" />
    <glyph glyph-name="u" unicode="u" horiz-adv-x="601" 
d="M524 0h-82l-39 49q-67 -61 -150 -61q-85 0 -133 54t-48 149v335h142v-328q0 -40 19 -61t52 -21q53 0 97 48v362h142v-526z" />
    <glyph glyph-name="v" unicode="v" horiz-adv-x="533" 
d="M330 0h-128l-177 460v66h132l115 -331l107 331h129v-66z" />
    <glyph glyph-name="w" unicode="w" horiz-adv-x="728" 
d="M285 0h-136l-107 460v66h129l68 -331l78 241h95l79 -241l67 331h128v-66l-108 -460h-133l-80 212z" />
    <glyph glyph-name="x" unicode="x" horiz-adv-x="532" 
d="M158 0h-121v66l140 197l-138 197v66h128l98 -155l101 155h120v-66l-133 -191l143 -203v-66h-127l-106 167z" />
    <glyph glyph-name="y" unicode="y" horiz-adv-x="517" 
d="M262 -160h-116v51l48 109l-177 460v66h131l116 -332l108 332h129v-66z" />
    <glyph glyph-name="z" unicode="z" horiz-adv-x="536" 
d="M481 0h-431v123l245 280h-239v123h409v-123l-248 -280h264v-123z" />
    <glyph glyph-name="braceleft" unicode="{" horiz-adv-x="345" 
d="M292 -31v-129q-90 0 -138 50t-48 146v137q0 79 -55 79h-24v128h24q55 0 55 79v123q0 97 48 147.5t138 50.5v-129q-23 0 -36 -19.5t-13 -48.5v-162q0 -65 -66 -105q66 -40 66 -105v-174q0 -29 13 -48.5t36 -19.5z" />
    <glyph glyph-name="bar" unicode="|" horiz-adv-x="311" 
d="M224 -100h-137v880h137v-880z" />
    <glyph glyph-name="braceright" unicode="}" horiz-adv-x="338" 
d="M53 -160v129q23 0 36 19.5t13 48.5v174q0 65 66 105q-66 40 -66 105v162q0 29 -13 48.5t-36 19.5v129q90 0 138 -50.5t48 -147.5v-123q0 -79 55 -79h24v-128h-24q-55 0 -55 -79v-137q0 -96 -48 -146t-138 -50z" />
    <glyph glyph-name="asciitilde" unicode="~" horiz-adv-x="504" 
d="M139 228l-96 55q53 120 137 120q37 0 72 -23l28 -18q20 -13 36 -13q23 0 49 46l96 -55q-51 -120 -136 -120q-37 0 -72 23l-28 17q-26 14 -36 14q-24 0 -50 -46z" />
    <glyph glyph-name="nbspace" unicode="&#xa0;" horiz-adv-x="0" 
 />
    <glyph glyph-name="exclamdown" unicode="&#xa1;" horiz-adv-x="283" 
d="M213 -160h-142v466h142v-466zM213 384h-142v142h142v-142z" />
    <glyph glyph-name="cent" unicode="&#xa2;" horiz-adv-x="552" 
d="M185 424v-154q0 -27 14 -45.5t36 -23.5v292q-22 -5 -36 -23.5t-14 -45.5zM369 270v9h134v-7q0 -80 -47.5 -132.5t-126.5 -65.5v-74h-103v75q-80 15 -126 65.5t-46 126.5v160q0 75 46 125.5t126 65.5v82h103v-81q81 -12 127.5 -63t46.5 -132v-8h-134v8q0 27 -14 45.5
t-36 23.5v-292q22 5 36 23.5t14 45.5z" />
    <glyph glyph-name="sterling" unicode="&#xa3;" horiz-adv-x="582" 
d="M545 0h-508v128h65v161h-65v128h65v103q0 90 60.5 142.5t163.5 52.5q102 0 160.5 -55t58.5 -157v-33h-142v34q0 83 -79 83q-80 0 -80 -72v-98h120v-128h-120v-161h301v-128z" />
    <glyph glyph-name="yen" unicode="&#xa5;" horiz-adv-x="575" 
d="M356 0h-142v93h-155v112h155v75h-155v112h103l-155 257v51h130l149 -263l154 263h128v-51l-160 -257h107v-112h-159v-75h159v-112h-159v-93z" />
    <glyph glyph-name="brokenbar" unicode="&#xa6;" horiz-adv-x="311" 
d="M224 -100h-137v354h137v-354zM224 446h-137v334h137v-334z" />
    <glyph glyph-name="section" unicode="&#xa7;" horiz-adv-x="598" 
d="M291 -172q-104 0 -174 52q-70 51 -70 148h136q0 -41 36 -59q37 -18 80 -18t67 13.5t24 36.5q0 18 -14 30q-18 16 -79 36q-6 3 -10 4l-34 11q-98 31 -143.5 74.5t-45.5 111.5q0 75 70 145q-37 33 -51 60.5t-14 68.5q0 75 60.5 120t162.5 45q114 0 176.5 -48t62.5 -147
h-135q0 38 -35 55q-36 17 -75 17t-61.5 -12t-22.5 -32q0 -23 23.5 -37.5t86.5 -33.5l36 -11q97 -30 143.5 -75t46.5 -114q0 -73 -65 -146q33 -27 45.5 -53.5t12.5 -66.5q0 -79 -64 -127t-176 -48zM299 201l74 -26q27 36 27 75q0 56 -90 87l-72 25q-33 -40 -33 -74
q0 -54 94 -87z" />
    <glyph glyph-name="dieresis" unicode="&#xa8;" horiz-adv-x="481" 
d="M208 595h-142v110h142v-110zM415 595h-142v110h142v-110z" />
    <glyph glyph-name="copyright" unicode="&#xa9;" horiz-adv-x="836" 
d="M417 140q-78 0 -125.5 40t-47.5 108v125q0 68 47.5 108t125.5 40q79 0 123.5 -39.5t44.5 -111.5v-4h-111v4q0 24 -15 38t-42 14q-63 0 -63 -48v-129q0 -47 63 -47q27 0 42 14t15 38v7h111v-5q0 -70 -46.5 -111t-121.5 -41zM674 90q-104 -105 -256 -105q-153 0 -256 105
q-104 107 -104 260t104 259q103 106 256 106t256 -106q104 -106 104 -259t-104 -260zM221 143q80 -83 197 -83t197 83q80 85 80 207q0 123 -80 206q-79 84 -197 84t-197 -84q-80 -83 -80 -206q0 -122 80 -207z" />
    <glyph glyph-name="ordfeminine" unicode="&#xaa;" horiz-adv-x="376" 
d="M145 353q-52 0 -85 26.5t-33 74.5q0 103 146 103h51v20q0 36 -39 36q-40 0 -40 -38h-103q0 130 143 130q142 0 142 -124v-223h-57l-21 32q-38 -37 -104 -37zM174 437q32 0 50 21v37h-52q-36 0 -36 -29t38 -29z" />
    <glyph glyph-name="guillemotleft" unicode="&#xab;" horiz-adv-x="551" 
d="M276 105h-122l-120 211l120 210h122v-40l-94 -170l94 -171v-40zM491 105h-122l-120 211l120 210h122v-40l-94 -170l94 -171v-40z" />
    <glyph glyph-name="logicalnot" unicode="&#xac;" horiz-adv-x="567" 
d="M510 205h-127v168h-326v118h453v-286z" />
    <glyph glyph-name="uni00AD" unicode="&#xad;" horiz-adv-x="445" 
d="M389 249h-332v128h332v-128z" />
    <glyph glyph-name="registered" unicode="&#xae;" horiz-adv-x="412" 
d="M184 456h-45v176h73q67 0 67 -60q0 -35 -32 -52l32 -49v-15h-46l-34 57h-15v-57zM184 589v-37h29q21 0 21 20q0 17 -21 17h-29zM324 420q-48 -49 -118 -49t-119 49q-48 50 -48 123t48 122q50 50 119 50q70 0 118 -50q49 -49 49 -122q0 -74 -49 -123zM206 412q52 0 88 37
t36 94q0 55 -36 93t-88 38q-53 0 -88.5 -37.5t-35.5 -93.5q0 -57 35.5 -94t88.5 -37z" />
    <glyph glyph-name="overscore" unicode="&#xaf;" horiz-adv-x="419" 
d="M375 595h-331v110h331v-110z" />
    <glyph glyph-name="degree" unicode="&#xb0;" horiz-adv-x="393" 
d="M233 495v82q0 15 -10.5 26t-25.5 11t-25.5 -11t-10.5 -26v-82q0 -15 10.5 -26t25.5 -11t25.5 11t10.5 26zM37 515v42q0 77 42 117.5t118 40.5t118 -40.5t42 -117.5v-42q0 -77 -42 -117.5t-118 -40.5t-118 40.5t-42 117.5z" />
    <glyph glyph-name="plusminus" unicode="&#xb1;" horiz-adv-x="579" 
d="M516 0h-453v118h453v-118zM354 197h-129v150h-162v118h162v150h129v-150h162v-118h-162v-150z" />
    <glyph glyph-name="twosuperior" unicode="&#xb2;" horiz-adv-x="313" 
d="M284 358h-261v86l112 84q27 20 35 32t8 28q0 10 -7 17.5t-19 7.5q-28 0 -28 -30v-9h-106q0 61 37.5 96t97.5 35q57 0 93.5 -31.5t36.5 -79.5q0 -64 -66 -112l-47 -34h114v-90z" />
    <glyph glyph-name="threesuperior" unicode="&#xb3;" horiz-adv-x="321" 
d="M165 353q-69 0 -107.5 34.5t-38.5 93.5h89q0 -16 13 -26t35 -10q38 0 38 24t-37 24h-28v73h28q32 0 32 23q0 24 -36 24q-18 0 -29 -10.5t-11 -28.5h-89q0 62 37 96.5t102 34.5q57 0 91.5 -28.5t34.5 -71.5q0 -45 -32 -66q18 -9 30 -29.5t12 -44.5q0 -49 -37 -80.5
t-97 -31.5z" />
    <glyph glyph-name="acute" unicode="&#xb4;" horiz-adv-x="307" 
d="M170 590h-113l65 140h128v-49z" />
    <glyph glyph-name="mu" unicode="&#xb5;" horiz-adv-x="606" 
d="M529 0h-82l-39 49q-67 -61 -150 -61q-18 0 -39 4v-152h-142v686h142v-328q0 -40 19 -61t52 -21q54 0 97 48v362h142v-526z" />
    <glyph glyph-name="paragraph" unicode="&#xb6;" horiz-adv-x="644" 
d="M347 -87h-135v455q-82 0 -128.5 42.5t-46.5 119.5v8q0 77 46.5 119.5t128.5 42.5h345v-787h-135v658h-75v-658z" />
    <glyph glyph-name="middot" unicode="&#xb7;" horiz-adv-x="289" 
d="M222 241h-154v145h154v-145z" />
    <glyph glyph-name="cedilla" unicode="&#xb8;" horiz-adv-x="305" 
d="M191 -160h-128v49l76 111h113z" />
    <glyph glyph-name="onesuperior" unicode="&#xb9;" horiz-adv-x="263" 
d="M206 358h-103v190h-72v52l146 100h29v-342z" />
    <glyph glyph-name="ordmasculine" unicode="&#xba;" horiz-adv-x="390" 
d="M195 445q26 0 40.5 12.5t14.5 31.5v80q0 19 -14.5 31.5t-40.5 12.5q-25 0 -39.5 -13t-14.5 -31v-80q0 -18 14.5 -31t39.5 -13zM195 705q73 0 115 -37.5t42 -104.5v-69q0 -66 -42 -103.5t-115 -37.5t-115 37.5t-42 103.5v69q0 66 42.5 104t114.5 38z" />
    <glyph glyph-name="guillemotright" unicode="&#xbb;" horiz-adv-x="551" 
d="M189 526l120 -210l-120 -211h-122v40l94 171l-94 170v40h122zM404 526l120 -210l-120 -211h-122v40l94 171l-94 170v40h122z" />
    <glyph glyph-name="onequarter" unicode="&#xbc;" horiz-adv-x="735" 
d="M396 135l119 207h76v-55l-86 -152h62v64h99v-64h38v-83h-38v-52h-99v52h-171v83zM175 0h-80v51l411 649h80v-51zM206 358h-103v190h-72v52l146 100h29v-342z" />
    <glyph glyph-name="onehalf" unicode="&#xbd;" horiz-adv-x="747" 
d="M718 0h-261v86l112 84q27 20 35 32t8 28q0 10 -7 17.5t-19 7.5q-28 0 -28 -30v-9h-106q0 61 37.5 96t97.5 35q57 0 93.5 -31.5t36.5 -79.5q0 -64 -66 -112l-47 -34h114v-90zM178 0h-80v51l411 649h80v-51zM206 358h-103v190h-72v52l146 100h29v-342z" />
    <glyph glyph-name="threequarters" unicode="&#xbe;" horiz-adv-x="772" 
d="M165 353q-69 0 -107.5 34.5t-38.5 93.5h89q0 -16 13 -26t35 -10q38 0 38 24t-37 24h-28v73h28q32 0 32 23q0 24 -36 24q-18 0 -29 -10.5t-11 -28.5h-89q0 62 37 96.5t102 34.5q57 0 91.5 -28.5t34.5 -71.5q0 -45 -32 -66q18 -9 30 -29.5t12 -44.5q0 -49 -37 -80.5
t-97 -31.5zM433 135l119 207h76v-55l-86 -152h62v64h99v-64h38v-83h-38v-52h-99v52h-171v83zM212 0h-80v51l411 649h80v-51z" />
    <glyph glyph-name="questiondown" unicode="&#xbf;" horiz-adv-x="528" 
d="M249 -172q-109 0 -167 60q-58 58 -58 143q0 80 48 128q24 24 42 37q14 12 51 34l29 18v58h142v-106l-100 -68q-31 -22 -40 -29q-30 -26 -30 -68q0 -36 22.5 -57.5t61.5 -21.5q48 0 75 30t27 81h136q0 -112 -67 -175q-67 -64 -172 -64zM336 384h-142v142h142v-142z" />
    <glyph glyph-name="Agrave" unicode="&#xc0;" horiz-adv-x="661" 
d="M160 0h-143v51l237 649h152l238 -649v-51h-153l-52 159h-224zM327 492l-66 -204h131zM387 762h-122l-85 98v53h137z" />
    <glyph glyph-name="Aacute" unicode="&#xc1;" horiz-adv-x="661" 
d="M160 0h-143v51l237 649h152l238 -649v-51h-153l-52 159h-224zM327 492l-66 -204h131zM399 762h-121l70 151h137v-53z" />
    <glyph glyph-name="Acircumflex" unicode="&#xc2;" horiz-adv-x="661" 
d="M160 0h-143v51l237 649h152l238 -649v-51h-153l-52 159h-224zM327 492l-66 -204h131zM286 762h-114v49l98 102h120l98 -102v-49h-115l-44 50z" />
    <glyph glyph-name="Atilde" unicode="&#xc3;" horiz-adv-x="661" 
d="M160 0h-143v51l237 649h152l238 -649v-51h-153l-52 159h-224zM327 492l-66 -204h131zM230 753l-87 51q45 109 125 109q30 0 64 -21l24 -15q34 -17 46 -12t31 41l87 -52q-47 -107 -125 -107q-31 0 -63 20l-25 15q-19 13 -35 13q-21 0 -42 -42z" />
    <glyph glyph-name="Adieresis" unicode="&#xc4;" horiz-adv-x="661" 
d="M160 0h-143v51l237 649h152l238 -649v-51h-153l-52 159h-224zM327 492l-66 -204h131zM293 768h-152v118h152v-118zM515 768h-152v118h152v-118z" />
    <glyph glyph-name="Aring" unicode="&#xc5;" horiz-adv-x="661" 
d="M160 0h-143v51l237 649h152l238 -649v-51h-153l-52 159h-224zM327 492l-66 -204h131zM305 826q12 -14 29.5 -7.5t22 21.5t-8.5 28t-29.5 7.5t-21 -20t7.5 -29.5zM411 768q-35 -33 -84 -33t-84 33t-35 79t35 78q35 33 84 33t84 -33q35 -32 35 -78t-35 -79z" />
    <glyph glyph-name="AE" unicode="&#xc6;" horiz-adv-x="1024" 
d="M147 0h-140v51l409 649h549v-135h-307v-150h261v-129h-261v-151h309v-135h-464v157h-258zM503 566l-175 -280h175v280z" />
    <glyph glyph-name="Ccedilla" unicode="&#xc7;" horiz-adv-x="661" 
d="M335 -160h-128v49l69 101q-102 16 -155.5 79.5t-53.5 167.5v226q0 121 71 186.5t205 65.5q114 0 188 -62t74 -185v-10h-156v10q0 52 -32 78.5t-84 26.5q-111 0 -111 -99v-248q0 -99 111 -99q53 0 84.5 25.5t31.5 79.5v10h156v-10q0 -107 -57.5 -169.5t-156.5 -74.5z" />
    <glyph glyph-name="Egrave" unicode="&#xc8;" horiz-adv-x="607" 
d="M550 0h-463v700h461v-135h-306v-150h260v-129h-260v-151h308v-135zM377 762h-122l-85 98v53h137z" />
    <glyph glyph-name="Eacute" unicode="&#xc9;" horiz-adv-x="607" 
d="M550 0h-463v700h461v-135h-306v-150h260v-129h-260v-151h308v-135zM347 762h-121l70 151h137v-53z" />
    <glyph glyph-name="Ecircumflex" unicode="&#xca;" horiz-adv-x="607" 
d="M550 0h-463v700h461v-135h-306v-150h260v-129h-260v-151h308v-135zM275 762h-114v49l98 102h120l98 -102v-49h-115l-44 50z" />
    <glyph glyph-name="Edieresis" unicode="&#xcb;" horiz-adv-x="607" 
d="M550 0h-463v700h461v-135h-306v-150h260v-129h-260v-151h308v-135zM285 768h-152v118h152v-118zM507 768h-152v118h152v-118z" />
    <glyph glyph-name="Igrave" unicode="&#xcc;" horiz-adv-x="329" 
d="M242 0h-155v700h155v-700zM225 762h-122l-85 98v53h137z" />
    <glyph glyph-name="Iacute" unicode="&#xcd;" horiz-adv-x="329" 
d="M242 0h-155v700h155v-700zM229 762h-121l70 151h137v-53z" />
    <glyph glyph-name="Icircumflex" unicode="&#xce;" horiz-adv-x="329" 
d="M242 0h-155v700h155v-700zM121 762h-114v49l98 102h120l98 -102v-49h-115l-44 50z" />
    <glyph glyph-name="Idieresis" unicode="&#xcf;" horiz-adv-x="329" 
d="M242 0h-155v700h155v-700zM131 768h-152v118h152v-118zM352 768h-152v118h152v-118z" />
    <glyph glyph-name="Eth" unicode="&#xd0;" horiz-adv-x="717" 
d="M267 285v-150h102q58 0 92 29t34 72v228q0 43 -34 72t-92 29h-102v-151h106v-129h-106zM369 0h-257v285h-92v129h92v286h257q131 0 206 -63.5t75 -176.5v-220q0 -114 -75 -177t-206 -63z" />
    <glyph glyph-name="Ntilde" unicode="&#xd1;" horiz-adv-x="720" 
d="M242 0h-155v700h142l249 -411v411h155v-700h-142l-249 411v-411zM260 742l-87 51q45 109 125 109q30 0 64 -21l24 -15q34 -17 46 -12t31 41l87 -52q-47 -107 -125 -107q-31 0 -63 20l-25 15q-19 13 -35 13q-21 0 -42 -42z" />
    <glyph glyph-name="Ograve" unicode="&#xd2;" horiz-adv-x="696" 
d="M474 231v238q0 45 -33 74.5t-93 29.5t-93 -29.5t-33 -74.5v-238q0 -45 33 -74.5t93 -29.5t93 29.5t33 74.5zM629 461v-223q0 -119 -76 -186t-205 -67t-205 67t-76 186v223q0 119 75.5 186.5t205.5 67.5t205.5 -67.5t75.5 -186.5zM412 762h-122l-85 98v53h137z" />
    <glyph glyph-name="Oacute" unicode="&#xd3;" horiz-adv-x="696" 
d="M474 231v238q0 45 -33 74.5t-93 29.5t-93 -29.5t-33 -74.5v-238q0 -45 33 -74.5t93 -29.5t93 29.5t33 74.5zM629 461v-223q0 -119 -76 -186t-205 -67t-205 67t-76 186v223q0 119 75.5 186.5t205.5 67.5t205.5 -67.5t75.5 -186.5zM409 762h-121l70 151h137v-53z" />
    <glyph glyph-name="Ocircumflex" unicode="&#xd4;" horiz-adv-x="696" 
d="M474 231v238q0 45 -33 74.5t-93 29.5t-93 -29.5t-33 -74.5v-238q0 -45 33 -74.5t93 -29.5t93 29.5t33 74.5zM629 461v-223q0 -119 -76 -186t-205 -67t-205 67t-76 186v223q0 119 75.5 186.5t205.5 67.5t205.5 -67.5t75.5 -186.5zM304 762h-114v49l98 102h120l98 -102v-49
h-115l-44 50z" />
    <glyph glyph-name="Otilde" unicode="&#xd5;" horiz-adv-x="696" 
d="M474 231v238q0 45 -33 74.5t-93 29.5t-93 -29.5t-33 -74.5v-238q0 -45 33 -74.5t93 -29.5t93 29.5t33 74.5zM629 461v-223q0 -119 -76 -186t-205 -67t-205 67t-76 186v223q0 119 75.5 186.5t205.5 67.5t205.5 -67.5t75.5 -186.5zM255 753l-87 51q45 109 125 109
q29 0 64 -21l24 -15q34 -17 46 -12t31 41l87 -52q-47 -107 -125 -107q-31 0 -63 20l-25 15q-19 13 -35 13q-21 0 -42 -42z" />
    <glyph glyph-name="Odieresis" unicode="&#xd6;" horiz-adv-x="696" 
d="M474 231v238q0 45 -33 74.5t-93 29.5t-93 -29.5t-33 -74.5v-238q0 -45 33 -74.5t93 -29.5t93 29.5t33 74.5zM629 461v-223q0 -119 -76 -186t-205 -67t-205 67t-76 186v223q0 119 75.5 186.5t205.5 67.5t205.5 -67.5t75.5 -186.5zM314 768h-152v118h152v-118zM536 768
h-152v118h152v-118z" />
    <glyph glyph-name="multiply" unicode="&#xd7;" horiz-adv-x="571" 
d="M285 227l-136 -137l-86 84l136 139l-136 137l86 86l136 -138l139 138l84 -86l-137 -137l137 -139l-84 -84z" />
    <glyph glyph-name="Oslash" unicode="&#xd8;" horiz-adv-x="697" 
d="M348 -15q-26 0 -58 4l-25 -89h-114v51l25 76q-109 67 -109 211v223q0 119 75.5 186.5t205.5 67.5q5 0 51 -2l25 87h114v-51l-24 -73q116 -65 116 -215v-223q0 -119 -75 -186t-207 -67zM456 540l-124 -419h19q63 0 97 30t34 75v247q0 39 -26 67zM241 160l124 419h-19
q-63 0 -97 -30t-34 -75v-247q0 -39 26 -67z" />
    <glyph glyph-name="Ugrave" unicode="&#xd9;" horiz-adv-x="700" 
d="M468 223v477h155v-471q0 -114 -73 -179t-200 -65t-200 65t-73 179v471h155v-477q0 -42 30.5 -69t87.5 -27t87.5 27t30.5 69zM409 762h-122l-85 98v53h137z" />
    <glyph glyph-name="Uacute" unicode="&#xda;" horiz-adv-x="700" 
d="M468 223v477h155v-471q0 -114 -73 -179t-200 -65t-200 65t-73 179v471h155v-477q0 -42 30.5 -69t87.5 -27t87.5 27t30.5 69zM392 762h-121l70 151h137v-53z" />
    <glyph glyph-name="Ucircumflex" unicode="&#xdb;" horiz-adv-x="700" 
d="M468 223v477h155v-471q0 -114 -73 -179t-200 -65t-200 65t-73 179v471h155v-477q0 -42 30.5 -69t87.5 -27t87.5 27t30.5 69zM310 762h-114v49l98 102h120l98 -102v-49h-115l-44 50z" />
    <glyph glyph-name="Udieresis" unicode="&#xdc;" horiz-adv-x="700" 
d="M468 223v477h155v-471q0 -114 -73 -179t-200 -65t-200 65t-73 179v471h155v-477q0 -42 30.5 -69t87.5 -27t87.5 27t30.5 69zM320 768h-152v118h152v-118zM542 768h-152v118h152v-118z" />
    <glyph glyph-name="Yacute" unicode="&#xdd;" horiz-adv-x="620" 
d="M388 0h-156v277l-225 372v51h153l151 -278l159 278h143v-51l-225 -366v-283zM359 762h-121l70 151h137v-53z" />
    <glyph glyph-name="Thorn" unicode="&#xde;" horiz-adv-x="643" 
d="M242 0h-155v700h155v-128h159q93 0 146.5 -58.5t53.5 -160.5t-53.5 -161t-146.5 -59h-159v-133zM242 437v-169h130q31 0 51.5 22.5t20.5 62.5t-20.5 62t-51.5 22h-130z" />
    <glyph glyph-name="germandbls" unicode="&#xdf;" horiz-adv-x="607" 
d="M219 0h-142v465q0 116 60 180t166 64q101 0 160.5 -53t59.5 -139q0 -90 -58 -130q42 -19 68.5 -66t26.5 -105q0 -97 -64 -157q-65 -59 -168 -59q-23 0 -51 5v123h38q49 0 76 25t27 73q0 96 -103 96h-38v123h28q75 0 75 68q0 30 -20.5 48.5t-54.5 18.5q-86 0 -86 -97v-483
z" />
    <glyph glyph-name="agrave" unicode="&#xe0;" horiz-adv-x="571" 
d="M378 49q-64 -61 -159 -61q-74 0 -126 41q-51 42 -51 117q0 83 53.5 127t158.5 44h103v29q0 64 -76 64t-76 -52h-139q0 83 55.5 131.5t159.5 48.5t161 -49t57 -133v-356h-82zM249 113q66 0 108 46v58h-103q-70 0 -70 -52q0 -24 17 -38t48 -14zM356 590h-114l-79 91v49h128
z" />
    <glyph glyph-name="aacute" unicode="&#xe1;" horiz-adv-x="571" 
d="M378 49q-64 -61 -159 -61q-74 0 -126 41q-51 42 -51 117q0 83 53.5 127t158.5 44h103v29q0 64 -76 64t-76 -52h-139q0 83 55.5 131.5t159.5 48.5t161 -49t57 -133v-356h-82zM249 113q66 0 108 46v58h-103q-70 0 -70 -52q0 -24 17 -38t48 -14zM322 590h-113l65 140h128
v-49z" />
    <glyph glyph-name="acircumflex" unicode="&#xe2;" horiz-adv-x="571" 
d="M378 49q-64 -61 -159 -61q-74 0 -126 41q-51 42 -51 117q0 83 53.5 127t158.5 44h103v29q0 64 -76 64t-76 -52h-139q0 83 55.5 131.5t159.5 48.5t161 -49t57 -133v-356h-82zM249 113q66 0 108 46v58h-103q-70 0 -70 -52q0 -24 17 -38t48 -14zM247 590h-106v45l91 95h112
l92 -95v-45h-108l-41 46z" />
    <glyph glyph-name="atilde" unicode="&#xe3;" horiz-adv-x="571" 
d="M378 49q-64 -61 -159 -61q-74 0 -126 41q-51 42 -51 117q0 83 53.5 127t158.5 44h103v29q0 64 -76 64t-76 -52h-139q0 83 55.5 131.5t159.5 48.5t161 -49t57 -133v-356h-82zM249 113q66 0 108 46v58h-103q-70 0 -70 -52q0 -24 17 -38t48 -14zM197 581l-85 50
q46 106 122 106q27 0 62 -20l24 -15q23 -13 34 -13t19.5 8.5t21.5 32.5l85 -50q-46 -105 -122 -105q-30 0 -62 20l-24 15q-23 12 -34 12t-19.5 -8.5t-21.5 -32.5z" />
    <glyph glyph-name="adieresis" unicode="&#xe4;" horiz-adv-x="571" 
d="M378 49q-64 -61 -159 -61q-74 0 -126 41q-51 42 -51 117q0 83 53.5 127t158.5 44h103v29q0 64 -76 64t-76 -52h-139q0 83 55.5 131.5t159.5 48.5t161 -49t57 -133v-356h-82zM249 113q66 0 108 46v58h-103q-70 0 -70 -52q0 -24 17 -38t48 -14zM257 595h-142v110h142v-110z
M464 595h-142v110h142v-110z" />
    <glyph glyph-name="aring" unicode="&#xe5;" horiz-adv-x="571" 
d="M378 49q-64 -61 -159 -61q-74 0 -126 41q-51 42 -51 117q0 83 53.5 127t158.5 44h103v29q0 64 -76 64t-76 -52h-139q0 83 55.5 131.5t159.5 48.5t161 -49t57 -133v-356h-82zM249 113q66 0 108 46v58h-103q-70 0 -70 -52q0 -24 17 -38t48 -14zM270 648q13 -12 29 -6.5
t20 19.5t-8 27q-12 12 -27.5 6.5t-20 -19t6.5 -27.5zM369 594q-31 -30 -78 -30q-46 0 -79 30q-32 31 -32 74t32 73q32 31 79 31t78 -31q33 -30 33 -73t-33 -74z" />
    <glyph glyph-name="ae" unicode="&#xe6;" horiz-adv-x="862" 
d="M223 -12q-80 0 -130.5 42t-50.5 116q0 172 217 172h98v28q0 64 -76 64t-76 -52h-139q0 83 55.5 131.5t159.5 48.5q94 0 153 -41q62 41 155 41q101 0 160.5 -50.5t59.5 -141.5v-130h-310v-33q0 -31 23 -49t67 -18q63 0 78 44h141q-8 -82 -65 -127t-154 -45q-133 0 -196 77
q-65 -77 -170 -77zM499 346v-27h168v27q0 30 -22.5 47t-62.5 17q-39 0 -61 -17t-22 -47zM357 159v58h-103q-70 0 -70 -52q0 -24 17 -38t48 -14q66 0 108 46z" />
    <glyph glyph-name="ccedilla" unicode="&#xe7;" horiz-adv-x="545" 
d="M257 -160h-128v49l74 108q-70 17 -109.5 66t-39.5 120v161q0 90 61 142t164 52q100 0 158.5 -53t58.5 -146v-6h-142v6q0 33 -20.5 52t-59.5 19q-78 0 -78 -64v-166q0 -64 78 -64q39 0 59.5 18t20.5 51v11h142v-7q0 -83 -49.5 -136t-132.5 -63z" />
    <glyph glyph-name="egrave" unicode="&#xe8;" horiz-adv-x="559" 
d="M285 -12q-107 0 -169 51t-62 142v163q0 90 62.5 142t168.5 52q101 0 161 -51t60 -141v-130h-310v-34q0 -31 22.5 -48.5t66.5 -17.5q63 0 78 44h142q-8 -81 -66 -126.5t-154 -45.5zM196 346v-27h168v27q0 30 -21.5 47t-62.5 17t-62.5 -17t-21.5 -47zM367 590h-114l-79 91
v49h128z" />
    <glyph glyph-name="eacute" unicode="&#xe9;" horiz-adv-x="559" 
d="M285 -12q-107 0 -169 51t-62 142v163q0 90 62.5 142t168.5 52q101 0 161 -51t60 -141v-130h-310v-34q0 -31 22.5 -48.5t66.5 -17.5q63 0 78 44h142q-8 -81 -66 -126.5t-154 -45.5zM196 346v-27h168v27q0 30 -21.5 47t-62.5 17t-62.5 -17t-21.5 -47zM324 590h-113l65 140
h128v-49z" />
    <glyph glyph-name="ecircumflex" unicode="&#xea;" horiz-adv-x="559" 
d="M285 -12q-107 0 -169 51t-62 142v163q0 90 62.5 142t168.5 52q101 0 161 -51t60 -141v-130h-310v-34q0 -31 22.5 -48.5t66.5 -17.5q63 0 78 44h142q-8 -81 -66 -126.5t-154 -45.5zM196 346v-27h168v27q0 30 -21.5 47t-62.5 17t-62.5 -17t-21.5 -47zM240 590h-106v45
l91 95h112l92 -95v-45h-108l-41 46z" />
    <glyph glyph-name="edieresis" unicode="&#xeb;" horiz-adv-x="559" 
d="M285 -12q-107 0 -169 51t-62 142v163q0 90 62.5 142t168.5 52q101 0 161 -51t60 -141v-130h-310v-34q0 -31 22.5 -48.5t66.5 -17.5q63 0 78 44h142q-8 -81 -66 -126.5t-154 -45.5zM196 346v-27h168v27q0 30 -21.5 47t-62.5 17t-62.5 -17t-21.5 -47zM250 595h-142v110h142
v-110zM457 595h-142v110h142v-110z" />
    <glyph glyph-name="igrave" unicode="&#xec;" horiz-adv-x="296" 
d="M206 590h-114l-79 91v49h128zM219 0h-142v526h142v-526z" />
    <glyph glyph-name="iacute" unicode="&#xed;" horiz-adv-x="296" 
d="M205 590h-113l65 140h128v-49zM219 0h-142v526h142v-526z" />
    <glyph glyph-name="icircumflex" unicode="&#xee;" horiz-adv-x="296" 
d="M106 590h-106v45l91 95h112l92 -95v-45h-108l-41 46zM219 0h-142v526h142v-526z" />
    <glyph glyph-name="idieresis" unicode="&#xef;" horiz-adv-x="296" 
d="M116 595h-142v110h142v-110zM323 595h-142v110h142v-110zM219 0h-142v526h142v-526z" />
    <glyph glyph-name="eth" unicode="&#xf0;" horiz-adv-x="561" 
d="M282 -12q-104 0 -168 52q-63 52 -63 143v111q0 98 54 145q55 48 138 48q58 0 97 -24l-58 61h-145v73h78l-39 42v66h128l81 -108h109v-73h-52q43 -61 57 -113q15 -51 15 -140v-90q0 -91 -63 -142t-169 -51zM282 116q42 0 66 20t24 52v125q-40 46 -91 46q-38 0 -63 -20
t-25 -55v-96q0 -32 24 -52t65 -20z" />
    <glyph glyph-name="ntilde" unicode="&#xf1;" horiz-adv-x="605" 
d="M219 0h-142v526h81l39 -49q64 61 153 61q86 0 134.5 -54.5t48.5 -150.5v-333h-142v325q0 41 -20 63t-53 22q-55 0 -99 -50v-360zM215 581l-85 50q46 106 122 106q27 0 62 -20l24 -15q23 -13 34 -13t19.5 8.5t21.5 32.5l85 -50q-46 -105 -122 -105q-30 0 -62 20l-24 15
q-23 12 -34 12t-19.5 -8.5t-21.5 -32.5z" />
    <glyph glyph-name="ograve" unicode="&#xf2;" horiz-adv-x="569" 
d="M285 116q41 0 64.5 20t23.5 52v149q0 33 -23.5 53t-64.5 20q-43 0 -66 -20.5t-23 -52.5v-149q0 -32 23 -52t66 -20zM54 183v161q0 88 61 141t170 53t169.5 -53t60.5 -141v-161q0 -88 -60.5 -141.5t-169.5 -53.5t-170 53.5t-61 141.5zM355 590h-114l-79 91v49h128z" />
    <glyph glyph-name="oacute" unicode="&#xf3;" horiz-adv-x="569" 
d="M285 116q41 0 64.5 20t23.5 52v149q0 33 -23.5 53t-64.5 20q-43 0 -66 -20.5t-23 -52.5v-149q0 -32 23 -52t66 -20zM54 183v161q0 88 61 141t170 53t169.5 -53t60.5 -141v-161q0 -88 -60.5 -141.5t-169.5 -53.5t-170 53.5t-61 141.5zM326 590h-113l65 140h128v-49z" />
    <glyph glyph-name="ocircumflex" unicode="&#xf4;" horiz-adv-x="569" 
d="M285 116q41 0 64.5 20t23.5 52v149q0 33 -23.5 53t-64.5 20q-43 0 -66 -20.5t-23 -52.5v-149q0 -32 23 -52t66 -20zM54 183v161q0 88 61 141t170 53t169.5 -53t60.5 -141v-161q0 -88 -60.5 -141.5t-169.5 -53.5t-170 53.5t-61 141.5zM244 590h-106v45l91 95h112l92 -95
v-45h-108l-41 46z" />
    <glyph glyph-name="otilde" unicode="&#xf5;" horiz-adv-x="569" 
d="M285 116q41 0 64.5 20t23.5 52v149q0 33 -23.5 53t-64.5 20q-43 0 -66 -20.5t-23 -52.5v-149q0 -32 23 -52t66 -20zM54 183v161q0 88 61 141t170 53t169.5 -53t60.5 -141v-161q0 -88 -60.5 -141.5t-169.5 -53.5t-170 53.5t-61 141.5zM185 581l-85 50q46 106 122 106
q27 0 62 -20l24 -15q23 -13 34 -13t19.5 8.5t21.5 32.5l85 -50q-46 -105 -122 -105q-30 0 -62 20l-24 15q-23 12 -34 12t-19.5 -8.5t-21.5 -32.5z" />
    <glyph glyph-name="odieresis" unicode="&#xf6;" horiz-adv-x="569" 
d="M285 116q41 0 64.5 20t23.5 52v149q0 33 -23.5 53t-64.5 20q-43 0 -66 -20.5t-23 -52.5v-149q0 -32 23 -52t66 -20zM54 183v161q0 88 61 141t170 53t169.5 -53t60.5 -141v-161q0 -88 -60.5 -141.5t-169.5 -53.5t-170 53.5t-61 141.5zM252 595h-142v110h142v-110zM459 595
h-142v110h142v-110z" />
    <glyph glyph-name="divide" unicode="&#xf7;" horiz-adv-x="579" 
d="M372 60h-165v129h165v-129zM516 254h-453v118h453v-118zM372 437h-165v129h165v-129z" />
    <glyph glyph-name="oslash" unicode="&#xf8;" horiz-adv-x="577" 
d="M285 -12q-47 0 -93 11l-70 -125h-68v67l58 103q-58 52 -58 139v161q0 88 61 141t170 53q55 0 94 -13l67 121h69v-67l-56 -99q56 -54 56 -136v-161q0 -88 -60.5 -141.5t-169.5 -53.5zM190 342v-166l133 237q-16 4 -37 4q-46 0 -71 -21t-25 -54zM379 184v166l-133 -237
q16 -4 37 -4q46 0 71 21t25 54z" />
    <glyph glyph-name="ugrave" unicode="&#xf9;" horiz-adv-x="601" 
d="M403 49q-67 -61 -150 -61q-85 0 -133 54t-48 149v335h142v-328q0 -40 19 -61t52 -21q53 0 97 48v362h142v-526h-82zM378 590h-114l-79 91v49h128z" />
    <glyph glyph-name="uacute" unicode="&#xfa;" horiz-adv-x="601" 
d="M403 49q-67 -61 -150 -61q-85 0 -133 54t-48 149v335h142v-328q0 -40 19 -61t52 -21q53 0 97 48v362h142v-526h-82zM332 590h-113l65 140h128v-49z" />
    <glyph glyph-name="ucircumflex" unicode="&#xfb;" horiz-adv-x="601" 
d="M403 49q-67 -61 -150 -61q-85 0 -133 54t-48 149v335h142v-328q0 -40 19 -61t52 -21q53 0 97 48v362h142v-526h-82zM258 590h-106v45l91 95h112l92 -95v-45h-108l-41 46z" />
    <glyph glyph-name="udieresis" unicode="&#xfc;" horiz-adv-x="601" 
d="M403 49q-67 -61 -150 -61q-85 0 -133 54t-48 149v335h142v-328q0 -40 19 -61t52 -21q53 0 97 48v362h142v-526h-82zM269 595h-142v110h142v-110zM476 595h-142v110h142v-110z" />
    <glyph glyph-name="yacute" unicode="&#xfd;" horiz-adv-x="517" 
d="M262 -160h-116v51l48 109l-177 460v66h131l116 -332l108 332h129v-66zM304 590h-113l65 140h128v-49z" />
    <glyph glyph-name="thorn" unicode="&#xfe;" horiz-adv-x="600" 
d="M219 -160h-142v865h142v-210q50 43 132 43q84 0 135.5 -50t51.5 -142v-165q0 -94 -53 -144q-52 -49 -134 -49t-132 43v-191zM322 116q29 0 51.5 21t22.5 55v143q0 34 -22.5 54.5t-51.5 20.5q-53 0 -103 -50v-194q50 -50 103 -50z" />
    <glyph glyph-name="ydieresis" unicode="&#xff;" horiz-adv-x="517" 
d="M262 -160h-116v51l48 109l-177 460v66h131l116 -332l108 332h129v-66zM227 595h-142v110h142v-110zM434 595h-142v110h142v-110z" />
    <glyph glyph-name="Amacron" unicode="&#x100;" horiz-adv-x="661" 
d="M160 0h-143v51l237 649h152l238 -649v-51h-153l-52 159h-224zM327 492l-66 -204h131zM509 768h-355v118h355v-118z" />
    <glyph glyph-name="amacron" unicode="&#x101;" horiz-adv-x="571" 
d="M378 49q-64 -61 -159 -61q-74 0 -126 41q-51 42 -51 117q0 83 53.5 127t158.5 44h103v29q0 64 -76 64t-76 -52h-139q0 83 55.5 131.5t159.5 48.5t161 -49t57 -133v-356h-82zM249 113q66 0 108 46v58h-103q-70 0 -70 -52q0 -24 17 -38t48 -14zM457 595h-331v110h331v-110z
" />
    <glyph glyph-name="Aogonek" unicode="&#x104;" horiz-adv-x="661" 
d="M680 -160h-58q-49 0 -77.5 19.5t-28.5 53.5q0 39 49 87h-74l-52 159h-224l-55 -159h-143v51l237 649h152l238 -649v-51q-35 -29 -35 -53q0 -22 41 -22h30v-85zM327 492l-66 -204h131z" />
    <glyph glyph-name="aogonek" unicode="&#x105;" horiz-adv-x="570" 
d="M535 -160h-58q-49 0 -77.5 19.5t-28.5 53.5q0 41 46 87l-39 49q-64 -61 -159 -61q-74 0 -126 41q-51 42 -51 117q0 83 53.5 127t158.5 44h103v29q0 64 -76 64t-76 -52h-139q0 83 55.5 131.5t159.5 48.5t161 -49t57 -133v-356q-35 -29 -35 -53q0 -22 41 -22h30v-85z
M249 113q66 0 108 46v58h-103q-70 0 -70 -52q0 -24 17 -38t48 -14z" />
    <glyph glyph-name="Cacute" unicode="&#x106;" horiz-adv-x="661" 
d="M343 -15q-134 0 -205 65.5t-71 186.5v226q0 121 71 186.5t205 65.5q114 0 188 -62t74 -185v-10h-156v10q0 52 -32 78.5t-84 26.5q-111 0 -111 -99v-248q0 -99 111 -99q53 0 84.5 25.5t31.5 79.5v10h156v-10q0 -124 -74 -186q-73 -61 -188 -61zM374 762h-121l70 151h137
v-53z" />
    <glyph glyph-name="cacute" unicode="&#x107;" horiz-adv-x="545" 
d="M279 -12q-103 0 -164 52.5t-61 142.5v161q0 90 61 142t164 52q100 0 158.5 -53t58.5 -146v-6h-142v6q0 33 -20.5 52t-59.5 19q-78 0 -78 -64v-166q0 -64 78 -64q39 0 59.5 18t20.5 51v11h142v-7q0 -93 -61 -147q-60 -54 -156 -54zM333 590h-113l65 140h128v-49z" />
    <glyph glyph-name="Ccaron" unicode="&#x10c;" horiz-adv-x="661" 
d="M343 -15q-134 0 -205 65.5t-71 186.5v226q0 121 71 186.5t205 65.5q114 0 188 -62t74 -185v-10h-156v10q0 52 -32 78.5t-84 26.5q-111 0 -111 -99v-248q0 -99 111 -99q53 0 84.5 25.5t31.5 79.5v10h156v-10q0 -124 -74 -186q-73 -61 -188 -61zM397 763h-120l-98 102v48
h116l44 -63l43 63h113v-48z" />
    <glyph glyph-name="ccaron" unicode="&#x10d;" horiz-adv-x="545" 
d="M279 -12q-103 0 -164 52.5t-61 142.5v161q0 90 61 142t164 52q100 0 158.5 -53t58.5 -146v-6h-142v6q0 33 -20.5 52t-59.5 19q-78 0 -78 -64v-166q0 -64 78 -64q39 0 59.5 18t20.5 51v11h142v-7q0 -93 -61 -147q-60 -54 -156 -54zM332 590h-112l-91 95v45h108l41 -59
l40 59h106v-45z" />
    <glyph glyph-name="Dcaron" unicode="&#x10e;" horiz-adv-x="691" 
d="M242 565v-430h101q58 0 92 29t34 72v228q0 43 -34 72t-92 29h-101zM343 0h-256v700h256q132 0 206.5 -63t74.5 -177v-220q0 -114 -74.5 -177t-206.5 -63zM376 763h-120l-98 102v48h116l44 -63l43 63h113v-48z" />
    <glyph glyph-name="dcaron" unicode="&#x10f;" horiz-adv-x="738" 
d="M523 0h-81l-39 49q-64 -61 -154 -61q-84 0 -135.5 50t-51.5 143v165q0 95 53 143q52 49 134 49t132 -43v210h142v-705zM278 116q53 0 103 50v194q-50 50 -103 50q-29 0 -51.5 -20.5t-22.5 -54.5v-144q0 -34 22.5 -54.5t51.5 -20.5zM690 488h-100l32 217h140v-60z" />
    <glyph glyph-name="Emacron" unicode="&#x112;" horiz-adv-x="607" 
d="M550 0h-463v700h461v-135h-306v-150h260v-129h-260v-151h308v-135zM490 768h-355v118h355v-118z" />
    <glyph glyph-name="emacron" unicode="&#x113;" horiz-adv-x="559" 
d="M285 -12q-107 0 -169 51t-62 142v163q0 90 62.5 142t168.5 52q101 0 161 -51t60 -141v-130h-310v-34q0 -31 22.5 -48.5t66.5 -17.5q63 0 78 44h142q-8 -81 -66 -126.5t-154 -45.5zM196 346v-27h168v27q0 30 -21.5 47t-62.5 17t-62.5 -17t-21.5 -47zM451 595h-331v110h331
v-110z" />
    <glyph glyph-name="Edotaccent" unicode="&#x116;" horiz-adv-x="607" 
d="M550 0h-463v700h461v-135h-306v-150h260v-129h-260v-151h308v-135zM390 768h-152v118h152v-118z" />
    <glyph glyph-name="edotaccent" unicode="&#x117;" horiz-adv-x="559" 
d="M285 -12q-107 0 -169 51t-62 142v163q0 90 62.5 142t168.5 52q101 0 161 -51t60 -141v-130h-310v-34q0 -31 22.5 -48.5t66.5 -17.5q63 0 78 44h142q-8 -81 -66 -126.5t-154 -45.5zM196 346v-27h168v27q0 30 -21.5 47t-62.5 17t-62.5 -17t-21.5 -47zM353 595h-142v110h142
v-110z" />
    <glyph glyph-name="Eogonek" unicode="&#x118;" horiz-adv-x="610" 
d="M471 0h-384v700h461v-135h-306v-150h260v-129h-260v-151h308v-135q-35 -29 -35 -53q0 -22 41 -22h30v-85h-58q-49 0 -77.5 19.5t-28.5 53.5q0 39 49 87z" />
    <glyph glyph-name="eogonek" unicode="&#x119;" horiz-adv-x="559" 
d="M447 -160h-58q-49 0 -77.5 19.5t-28.5 53.5q0 35 39 77q-32 -2 -37 -2q-107 0 -169 51t-62 142v163q0 90 62.5 142t168.5 52q101 0 161 -51t60 -141v-130h-310v-34q0 -31 22.5 -48.5t66.5 -17.5q63 0 78 44h142q-7 -87 -68 -141q-5 -5 -22 -18t-20 -16q-19 -17 -19 -38
q0 -22 41 -22h30v-85zM196 346v-27h168v27q0 30 -21.5 47t-62.5 17t-62.5 -17t-21.5 -47z" />
    <glyph glyph-name="Ecaron" unicode="&#x11a;" horiz-adv-x="607" 
d="M550 0h-463v700h461v-135h-306v-150h260v-129h-260v-151h308v-135zM380 763h-120l-98 102v48h116l44 -63l43 63h113v-48z" />
    <glyph glyph-name="ecaron" unicode="&#x11b;" horiz-adv-x="559" 
d="M285 -12q-107 0 -169 51t-62 142v163q0 90 62.5 142t168.5 52q101 0 161 -51t60 -141v-130h-310v-34q0 -31 22.5 -48.5t66.5 -17.5q63 0 78 44h142q-8 -81 -66 -126.5t-154 -45.5zM196 346v-27h168v27q0 30 -21.5 47t-62.5 17t-62.5 -17t-21.5 -47zM341 590h-112l-91 95
v45h108l41 -59l40 59h106v-45z" />
    <glyph glyph-name="uni0122" unicode="&#x122;" horiz-adv-x="698" 
d="M326 -15q-119 0 -190 68q-69 69 -69 184v226q0 119 73.5 185.5t206.5 66.5q119 0 193 -64q75 -65 75 -180h-156q0 47 -33 74.5t-88 27.5q-57 0 -86.5 -27t-29.5 -76v-233q0 -49 30.5 -79.5t83.5 -30.5q80 0 128 65v62h-120v129h271v-383h-83l-32 62q-26 -35 -73 -56
t-101 -21zM332 -284h-100l32 217h140v-60z" />
    <glyph glyph-name="uni0123" unicode="&#x123;" horiz-adv-x="600" 
d="M75 5h142q0 -21 18.5 -35t59.5 -14q86 0 86 76v55q-50 -43 -132 -43q-84 0 -135.5 50t-51.5 142v110q0 92 51.5 142t135.5 50q86 0 151 -59l42 47h81v-493q0 -98 -60.5 -151.5t-166.5 -53.5q-104 0 -162.5 47t-58.5 130zM278 172q53 0 103 50v138q-50 50 -103 50
q-29 0 -51.5 -20.5t-22.5 -54.5v-87q0 -34 22.5 -55t51.5 -21zM310 803h92l-29 -217h-129v60z" />
    <glyph glyph-name="Imacron" unicode="&#x12a;" horiz-adv-x="329" 
d="M242 0h-155v700h155v-700zM341 768h-355v118h355v-118z" />
    <glyph glyph-name="imacron" unicode="&#x12b;" horiz-adv-x="296" 
d="M313 595h-331v110h331v-110zM219 0h-142v526h142v-526z" />
    <glyph glyph-name="Iogonek" unicode="&#x12e;" horiz-adv-x="329" 
d="M163 0h-76v700h155v-700q-35 -29 -35 -53q0 -22 41 -22h30v-85h-58q-49 0 -77.5 19.5t-28.5 53.5q0 39 49 87z" />
    <glyph glyph-name="iogonek" unicode="&#x12f;" horiz-adv-x="296" 
d="M140 0h-63v526h142v-526q-35 -29 -35 -53q0 -22 41 -22h30v-85h-58q-49 0 -77.5 19.5t-28.5 53.5q0 39 49 87zM219 595h-142v110h142v-110z" />
    <glyph glyph-name="dotlessi" unicode="&#x131;" horiz-adv-x="296" 
d="M219 0h-142v526h142v-526z" />
    <glyph glyph-name="uni0136" unicode="&#x136;" horiz-adv-x="652" 
d="M242 0h-155v700h155v-282h61l169 282h140v-51l-178 -290l193 -308v-51h-150l-171 282h-64v-282zM352 -284h-100l32 217h140v-60z" />
    <glyph glyph-name="uni0137" unicode="&#x137;" horiz-adv-x="558" 
d="M219 0h-142v705h142v-373h35l133 194h122v-66l-128 -186l141 -208v-66h-126l-142 209h-35v-209zM284 -284h-92l29 217h129v-60z" />
    <glyph glyph-name="Lacute" unicode="&#x139;" horiz-adv-x="570" 
d="M553 0h-466v700h155v-565h311v-135zM228 762h-121l70 151h137v-53z" />
    <glyph glyph-name="lacute" unicode="&#x13a;" horiz-adv-x="296" 
d="M219 0h-142v705h142v-705zM204 756h-113l65 140h128v-49z" />
    <glyph glyph-name="uni013B" unicode="&#x13b;" horiz-adv-x="570" 
d="M553 0h-466v700h155v-565h311v-135zM319 -284h-100l32 217h140v-60z" />
    <glyph glyph-name="uni013C" unicode="&#x13c;" horiz-adv-x="296" 
d="M219 0h-142v705h142v-705zM148 -284h-92l29 217h129v-60z" />
    <glyph glyph-name="Lcaron" unicode="&#x13d;" horiz-adv-x="570" 
d="M553 0h-466v700h155v-565h311v-135zM481 483h-100l32 217h140v-60z" />
    <glyph glyph-name="lcaron" unicode="&#x13e;" horiz-adv-x="432" 
d="M384 488h-100l32 217h140v-60zM219 0h-142v705h142v-705z" />
    <glyph glyph-name="Lslash" unicode="&#x141;" horiz-adv-x="606" 
d="M589 0h-466v211l-58 -41h-50v124l108 78v328h155v-210l84 58h50v-124l-134 -96v-193h311v-135z" />
    <glyph glyph-name="lslash" unicode="&#x142;" horiz-adv-x="418" 
d="M280 0h-142v197l-72 -71h-66v87l138 144v348h142v-195l73 73h65v-89l-138 -142v-352z" />
    <glyph glyph-name="Nacute" unicode="&#x143;" horiz-adv-x="720" 
d="M242 0h-155v700h142l249 -411v411h155v-700h-142l-249 411v-411zM395 762h-121l70 151h137v-53z" />
    <glyph glyph-name="nacute" unicode="&#x144;" horiz-adv-x="605" 
d="M219 0h-142v526h81l39 -49q64 61 153 61q86 0 134.5 -54.5t48.5 -150.5v-333h-142v325q0 41 -20 63t-53 22q-55 0 -99 -50v-360zM358 590h-113l65 140h128v-49z" />
    <glyph glyph-name="Ncommaaccent" unicode="&#x145;" horiz-adv-x="720" 
d="M242 0h-155v700h142l249 -411v411h155v-700h-142l-249 411v-411zM362 -284h-100l32 217h140v-60z" />
    <glyph glyph-name="ncommaaccent" unicode="&#x146;" horiz-adv-x="605" 
d="M219 0h-142v526h81l39 -49q64 61 153 61q86 0 134.5 -54.5t48.5 -150.5v-333h-142v325q0 41 -20 63t-53 22q-55 0 -99 -50v-360zM300 -284h-92l29 217h129v-60z" />
    <glyph glyph-name="Ncaron" unicode="&#x147;" horiz-adv-x="720" 
d="M242 0h-155v700h142l249 -411v411h155v-700h-142l-249 411v-411zM419 763h-120l-98 102v48h116l44 -63l43 63h113v-48z" />
    <glyph glyph-name="ncaron" unicode="&#x148;" horiz-adv-x="605" 
d="M219 0h-142v526h81l39 -49q64 61 153 61q86 0 134.5 -54.5t48.5 -150.5v-333h-142v325q0 41 -20 63t-53 22q-55 0 -99 -50v-360zM364 590h-112l-91 95v45h108l41 -59l40 59h106v-45z" />
    <glyph glyph-name="Omacron" unicode="&#x14c;" horiz-adv-x="696" 
d="M474 231v238q0 45 -33 74.5t-93 29.5t-93 -29.5t-33 -74.5v-238q0 -45 33 -74.5t93 -29.5t93 29.5t33 74.5zM629 461v-223q0 -119 -76 -186t-205 -67t-205 67t-76 186v223q0 119 75.5 186.5t205.5 67.5t205.5 -67.5t75.5 -186.5zM526 768h-355v118h355v-118z" />
    <glyph glyph-name="omacron" unicode="&#x14d;" horiz-adv-x="569" 
d="M285 116q41 0 64.5 20t23.5 52v149q0 33 -23.5 53t-64.5 20q-43 0 -66 -20.5t-23 -52.5v-149q0 -32 23 -52t66 -20zM54 183v161q0 88 61 141t170 53t169.5 -53t60.5 -141v-161q0 -88 -60.5 -141.5t-169.5 -53.5t-170 53.5t-61 141.5zM451 595h-331v110h331v-110z" />
    <glyph glyph-name="obreve" unicode="&#x14f;" horiz-adv-x="569" 
d="M285 116q41 0 64.5 20t23.5 52v149q0 33 -23.5 53t-64.5 20q-43 0 -66 -20.5t-23 -52.5v-149q0 -32 23 -52t66 -20zM54 183v161q0 88 61 141t170 53t169.5 -53t60.5 -141v-161q0 -88 -60.5 -141.5t-169.5 -53.5t-170 53.5t-61 141.5zM120 727v12h121v-11q0 -36 45 -36
q47 0 47 36v11h119v-12q0 -63 -45 -100t-121 -37t-121 37t-45 100z" />
    <glyph glyph-name="Ohungarumlaut" unicode="&#x150;" horiz-adv-x="696" 
d="M474 231v238q0 45 -33 74.5t-93 29.5t-93 -29.5t-33 -74.5v-238q0 -45 33 -74.5t93 -29.5t93 29.5t33 74.5zM629 461v-223q0 -119 -76 -186t-205 -67t-205 67t-76 186v223q0 119 75.5 186.5t205.5 67.5t205.5 -67.5t75.5 -186.5zM296 763h-121l70 150h137v-52zM486 763
h-121l68 150h138v-52z" />
    <glyph glyph-name="ohungarumlaut" unicode="&#x151;" horiz-adv-x="569" 
d="M285 116q41 0 64.5 20t23.5 52v149q0 33 -23.5 53t-64.5 20q-43 0 -66 -20.5t-23 -52.5v-149q0 -32 23 -52t66 -20zM54 183v161q0 88 61 141t170 53t169.5 -53t60.5 -141v-161q0 -88 -60.5 -141.5t-169.5 -53.5t-170 53.5t-61 141.5zM240 590h-113l65 140h128v-49z
M417 590h-113l64 140h128v-49z" />
    <glyph glyph-name="OE" unicode="&#x152;" horiz-adv-x="995" 
d="M348 -15q-129 0 -205 67t-76 186v223q0 119 75.5 186.5t205.5 67.5q38 0 127 -15h460v-135h-305v-150h260v-129h-260v-151h308v-135h-463q-89 -15 -127 -15zM348 127q61 0 94 29.5t33 74.5v238q0 45 -33 74.5t-94 29.5q-60 0 -93 -29.5t-33 -74.5v-238q0 -45 33 -74.5
t93 -29.5z" />
    <glyph glyph-name="oe" unicode="&#x153;" horiz-adv-x="878" 
d="M604 -12q-99 0 -161 44q-61 -44 -158 -44q-109 0 -170 53.5t-61 141.5v161q0 88 61 141t170 53q100 0 159 -46q61 46 160 46q101 0 161 -51t60 -141v-130h-310v-40q5 -60 89 -60q63 0 78 44h142q-8 -81 -66 -126.5t-154 -45.5zM285 116q41 0 64.5 20t23.5 52v149
q0 33 -23.5 53t-64.5 20q-43 0 -66 -20.5t-23 -52.5v-149q0 -32 23 -52t66 -20zM515 346v-27h168v27q0 30 -21.5 47t-62.5 17t-62.5 -17t-21.5 -47z" />
    <glyph glyph-name="Racute" unicode="&#x154;" horiz-adv-x="680" 
d="M242 0h-155v700h304q107 0 164 -57t57 -163q0 -144 -112 -202l132 -227v-51h-151l-146 260h-93v-260zM242 565v-176h123q46 0 68 21t22 68q0 46 -22 66.5t-68 20.5h-123zM367 762h-121l70 151h137v-53z" />
    <glyph glyph-name="racute" unicode="&#x155;" horiz-adv-x="391" 
d="M77 526h81l39 -49q52 61 131 61h38v-135h-38q-75 0 -109 -43v-360h-142v526zM255 590h-113l65 140h128v-49z" />
    <glyph glyph-name="Rcommaaccent" unicode="&#x156;" horiz-adv-x="670" 
d="M242 0h-155v700h304q107 0 164 -57t57 -163q0 -144 -112 -202l132 -227v-51h-151l-146 260h-93v-260zM242 565v-176h123q46 0 68 21t22 68q0 46 -22 66.5t-68 20.5h-123zM350 -284h-100l32 217h140v-60z" />
    <glyph glyph-name="uni0157" unicode="&#x157;" horiz-adv-x="391" 
d="M77 526h81l39 -49q52 61 131 61h38v-135h-38q-75 0 -109 -43v-360h-142v526zM147 -284h-92l29 217h129v-60z" />
    <glyph glyph-name="Rcaron" unicode="&#x158;" horiz-adv-x="680" 
d="M242 0h-155v700h304q107 0 164 -57t57 -163q0 -144 -112 -202l132 -227v-51h-151l-146 260h-93v-260zM242 565v-176h123q46 0 68 21t22 68q0 46 -22 66.5t-68 20.5h-123zM381 763h-120l-98 102v48h116l44 -63l43 63h113v-48z" />
    <glyph glyph-name="rcaron" unicode="&#x159;" horiz-adv-x="373" 
d="M77 526h81l39 -49q52 61 131 61h38v-135h-38q-75 0 -109 -43v-360h-142v526zM263 590h-112l-91 95v45h108l41 -59l40 59h106v-45z" />
    <glyph glyph-name="Sacute" unicode="&#x15a;" horiz-adv-x="652" 
d="M321 -15q-121 0 -200 63t-79 179h155q0 -37 23 -62q39 -38 115 -38q49 0 75.5 18t26.5 49q0 29 -28 44q-29 17 -106 42l-56 19q-75 25 -126 63q-62 48 -62 138q0 98 70 156q71 59 192 59q119 0 192 -61t73 -178h-156q0 46 -31.5 71.5t-81.5 25.5q-48 0 -74.5 -17
t-26.5 -48q0 -25 25 -45q7 -7 39 -18l51 -18l52 -18q109 -38 160 -84t51 -123q0 -100 -71 -158.5t-202 -58.5zM361 762h-121l70 151h137v-53z" />
    <glyph glyph-name="sacute" unicode="&#x15b;" horiz-adv-x="549" 
d="M279 -12q-105 0 -169 54t-65 139h138q13 -67 109 -67q69 0 69 37q0 28 -46 40l-129 33q-128 33 -128 142q0 81 56 126.5t157 45.5q97 0 157 -49.5t63 -133.5h-137q-16 57 -92 57q-66 0 -66 -38q0 -22 42 -32l138 -35q123 -31 123 -145q0 -81 -59 -127.5t-161 -46.5z
M308 590h-113l65 140h128v-49z" />
    <glyph glyph-name="scircumflex" unicode="&#x15d;" horiz-adv-x="549" 
d="M279 -12q-105 0 -169 54t-65 139h138q13 -67 109 -67q69 0 69 37q0 28 -46 40l-129 33q-128 33 -128 142q0 81 56 126.5t157 45.5q97 0 157 -49.5t63 -133.5h-137q-16 57 -92 57q-66 0 -66 -38q0 -22 42 -32l138 -35q123 -31 123 -145q0 -81 -59 -127.5t-161 -46.5z
M229 590h-106v45l91 95h112l92 -95v-45h-108l-41 46z" />
    <glyph glyph-name="Scaron" unicode="&#x160;" horiz-adv-x="652" 
d="M321 -15q-121 0 -200 63t-79 179h155q0 -37 23 -62q39 -38 115 -38q49 0 75.5 18t26.5 49q0 29 -28 44q-29 17 -106 42l-56 19q-75 25 -126 63q-62 48 -62 138q0 98 70 156q71 59 192 59q119 0 192 -61t73 -178h-156q0 46 -31.5 71.5t-81.5 25.5q-48 0 -74.5 -17
t-26.5 -48q0 -25 25 -45q7 -7 39 -18l51 -18l52 -18q109 -38 160 -84t51 -123q0 -100 -71 -158.5t-202 -58.5zM382 763h-120l-98 102v48h116l44 -63l43 63h113v-48z" />
    <glyph glyph-name="scaron" unicode="&#x161;" horiz-adv-x="549" 
d="M279 -12q-105 0 -169 54t-65 139h138q13 -67 109 -67q69 0 69 37q0 28 -46 40l-129 33q-128 33 -128 142q0 81 56 126.5t157 45.5q97 0 157 -49.5t63 -133.5h-137q-16 57 -92 57q-66 0 -66 -38q0 -22 42 -32l138 -35q123 -31 123 -145q0 -81 -59 -127.5t-161 -46.5z
M329 590h-112l-91 95v45h108l41 -59l40 59h106v-45z" />
    <glyph glyph-name="Tcaron" unicode="&#x164;" horiz-adv-x="574" 
d="M365 0h-155v565h-193v135h540v-135h-192v-565zM348 763h-120l-98 102v48h116l44 -63l43 63h113v-48z" />
    <glyph glyph-name="tcaron" unicode="&#x165;" horiz-adv-x="565" 
d="M350 0h-59q-199 0 -199 207v196h-75v123h75v110h142v-110h116v-123h-116v-196q0 -47 17.5 -65.5t54.5 -18.5h44v-123zM492 488h-100l32 217h140v-60z" />
    <glyph glyph-name="Umacron" unicode="&#x16a;" horiz-adv-x="700" 
d="M468 223v477h155v-471q0 -114 -73 -179t-200 -65t-200 65t-73 179v471h155v-477q0 -42 30.5 -69t87.5 -27t87.5 27t30.5 69zM529 768h-355v118h355v-118z" />
    <glyph glyph-name="umacron" unicode="&#x16b;" horiz-adv-x="601" 
d="M403 49q-67 -61 -150 -61q-85 0 -133 54t-48 149v335h142v-328q0 -40 19 -61t52 -21q53 0 97 48v362h142v-526h-82zM465 595h-331v110h331v-110z" />
    <glyph glyph-name="Uring" unicode="&#x16e;" horiz-adv-x="700" 
d="M468 223v477h155v-471q0 -114 -73 -179t-200 -65t-200 65t-73 179v471h155v-477q0 -42 30.5 -69t87.5 -27t87.5 27t30.5 69zM329 826q12 -14 29.5 -7.5t22 21.5t-8.5 28t-29.5 7.5t-21 -20t7.5 -29.5zM435 768q-35 -33 -84 -33t-84 33t-35 79t35 78q35 33 84 33t84 -33
q35 -32 35 -78t-35 -79z" />
    <glyph glyph-name="uring" unicode="&#x16f;" horiz-adv-x="601" 
d="M403 49q-67 -61 -150 -61q-85 0 -133 54t-48 149v335h142v-328q0 -40 19 -61t52 -21q53 0 97 48v362h142v-526h-82zM277 648q13 -12 29 -6.5t20 19.5t-8 27q-12 12 -27.5 6.5t-20 -19t6.5 -27.5zM376 594q-32 -30 -78 -30t-79 30q-32 31 -32 74t32 73q32 31 79 31t78 -31
q33 -30 33 -73t-33 -74z" />
    <glyph glyph-name="Uhungarumlaut" unicode="&#x170;" horiz-adv-x="700" 
d="M468 223v477h155v-471q0 -114 -73 -179t-200 -65t-200 65t-73 179v471h155v-477q0 -42 30.5 -69t87.5 -27t87.5 27t30.5 69zM297 763h-121l70 150h137v-52zM487 763h-121l68 150h138v-52z" />
    <glyph glyph-name="uhungarumlaut" unicode="&#x171;" horiz-adv-x="601" 
d="M403 49q-67 -61 -150 -61q-85 0 -133 54t-48 149v335h142v-328q0 -40 19 -61t52 -21q53 0 97 48v362h142v-526h-82zM253 590h-113l65 140h128v-49zM430 590h-113l64 140h128v-49z" />
    <glyph glyph-name="Uogonek" unicode="&#x172;" horiz-adv-x="700" 
d="M554 -160h-58q-49 0 -77.5 19.5t-28.5 53.5q0 37 42 80q-43 -8 -82 -8q-127 0 -200 65t-73 179v471h155v-477q0 -42 30.5 -69t87.5 -27t87.5 27t30.5 69v477h155v-471q0 -125 -81 -192q-59 -50 -59 -80q0 -32 41 -32h30v-85z" />
    <glyph glyph-name="uogonek" unicode="&#x173;" horiz-adv-x="601" 
d="M560 -160h-58q-49 0 -77.5 19.5t-28.5 53.5q0 41 46 87l-39 49q-67 -61 -150 -61q-85 0 -133 54t-48 149v335h142v-328q0 -40 19 -61t52 -21q53 0 97 48v362h142v-526q-35 -29 -35 -53q0 -22 41 -22h30v-85z" />
    <glyph glyph-name="Ydieresis" unicode="&#x178;" horiz-adv-x="620" 
d="M388 0h-156v277l-225 372v51h153l151 -278l159 278h143v-51l-225 -366v-283zM277 771h-152v118h152v-118zM499 771h-152v118h152v-118z" />
    <glyph glyph-name="Zacute" unicode="&#x179;" horiz-adv-x="595" 
d="M559 0h-522v134l332 431h-317v135h495v-133l-333 -432h345v-135zM329 762h-121l70 151h137v-53z" />
    <glyph glyph-name="zacute" unicode="&#x17a;" horiz-adv-x="536" 
d="M481 0h-431v123l245 280h-239v123h409v-123l-248 -280h264v-123zM288 590h-113l65 140h128v-49z" />
    <glyph glyph-name="Zdotaccent" unicode="&#x17b;" horiz-adv-x="595" 
d="M559 0h-522v134l332 431h-317v135h495v-133l-333 -432h345v-135zM374 768h-152v118h152v-118z" />
    <glyph glyph-name="zdotaccent" unicode="&#x17c;" horiz-adv-x="536" 
d="M481 0h-431v123l245 280h-239v123h409v-123l-248 -280h264v-123zM332 595h-142v110h142v-110z" />
    <glyph glyph-name="Zcaron" unicode="&#x17d;" horiz-adv-x="595" 
d="M559 0h-522v134l332 431h-317v135h495v-133l-333 -432h345v-135zM364 763h-120l-98 102v48h116l44 -63l43 63h113v-48z" />
    <glyph glyph-name="zcaron" unicode="&#x17e;" horiz-adv-x="536" 
d="M481 0h-431v123l245 280h-239v123h409v-123l-248 -280h264v-123zM320 590h-112l-91 95v45h108l41 -59l40 59h106v-45z" />
    <glyph glyph-name="florin" unicode="&#x192;" horiz-adv-x="375" 
d="M31 403v123h75q6 88 62 134.5t152 46.5q4 0 38 -2v-121h-24q-80 0 -86 -58h110v-123h-120l-30 -371q-9 -110 -60.5 -157t-155.5 -47q-10 0 -36 2v121h22q45 0 64.5 18.5t23.5 64.5l30 369h-65z" />
    <glyph glyph-name="scommaaccent" unicode="&#x219;" horiz-adv-x="549" 
d="M279 -12q-105 0 -169 54t-65 139h138q13 -67 109 -67q69 0 69 37q0 28 -46 40l-129 33q-128 33 -128 142q0 81 56 126.5t157 45.5q97 0 157 -49.5t63 -133.5h-137q-16 57 -92 57q-66 0 -66 -38q0 -22 42 -32l138 -35q123 -31 123 -145q0 -81 -59 -127.5t-161 -46.5z
M275 -284h-92l29 217h129v-60z" />
    <glyph glyph-name="circumflex" unicode="&#x2c6;" horiz-adv-x="409" 
d="M163 590h-106v45l91 95h112l92 -95v-45h-108l-41 46z" />
    <glyph glyph-name="caron" unicode="&#x2c7;" horiz-adv-x="409" 
d="M260 590h-112l-91 95v45h108l41 -59l40 59h106v-45z" />
    <glyph glyph-name="breve" unicode="&#x2d8;" horiz-adv-x="409" 
d="M39 713v12h121v-11q0 -36 45 -36q47 0 47 36v11h119v-12q0 -63 -45 -100t-121 -37t-121 37t-45 100z" />
    <glyph glyph-name="dotaccent" unicode="&#x2d9;" horiz-adv-x="256" 
d="M199 595h-142v110h142v-110z" />
    <glyph glyph-name="ring" unicode="&#x2da;" horiz-adv-x="336" 
d="M147 648q13 -12 29 -6.5t20 19.5t-8 27q-12 12 -27.5 6.5t-20 -19t6.5 -27.5zM246 594q-32 -30 -78 -30t-79 30q-32 31 -32 74t32 73q32 31 79 31t78 -31q33 -30 33 -73t-33 -74z" />
    <glyph glyph-name="ogonek" unicode="&#x2db;" horiz-adv-x="286" 
d="M211 -160h-58q-49 0 -77.5 19.5t-28.5 53.5q0 39 49 87h79q-35 -29 -35 -53q0 -22 41 -22h30v-85z" />
    <glyph glyph-name="tilde" unicode="&#x2dc;" horiz-adv-x="482" 
d="M142 581l-85 50q46 106 122 106q27 0 62 -20l24 -15q23 -13 34 -13t19.5 8.5t21.5 32.5l85 -50q-47 -105 -122 -105q-30 0 -62 20l-24 15q-22 12 -34 12q-11 0 -19.5 -8.5t-21.5 -32.5z" />
    <glyph glyph-name="hungarumlaut" unicode="&#x2dd;" horiz-adv-x="483" 
d="M170 590h-113l65 140h128v-49zM347 590h-113l64 140h128v-49z" />
    <glyph glyph-name="uni03A9" unicode="&#x3a9;" horiz-adv-x="727" 
d="M237 469v-190q0 -48 16 -89q16 -42 56 -55v-135h-244v135h72q-24 21 -38 49q-12 25 -14.5 43t-2.5 56v178q0 119 75.5 186.5t205.5 67.5t205.5 -67.5t75.5 -186.5v-178q0 -27 -2 -53q-3 -21 -16.5 -48t-36.5 -47h72v-135h-244v135q40 13 56 55q16 41 16 89v190
q0 45 -33 74.5t-93 29.5t-93 -29.5t-33 -74.5z" />
    <glyph glyph-name="pi" unicode="&#x3c0;" horiz-adv-x="716" 
d="M267 0h-142v403h-98v123h663v-123h-99v-403h-142v403h-182v-403z" />
    <glyph glyph-name="uni0401" unicode="&#x401;" horiz-adv-x="607" 
d="M550 0h-463v700h461v-135h-306v-150h260v-129h-260v-151h308v-135zM282 767h-152v118h152v-118zM503 767h-152v118h152v-118z" />
    <glyph glyph-name="uni0402" unicode="&#x402;" horiz-adv-x="755" 
d="M343 0h-155v565h-171v135h546v-135h-220v-140q66 8 115 8q122 0 188.5 -58t66.5 -159t-54.5 -158.5t-153.5 -57.5h-76v135h49q38 0 57.5 20t19.5 56q0 80 -111 80q-47 0 -101 -8v-283z" />
    <glyph glyph-name="uni0403" unicode="&#x403;" horiz-adv-x="567" 
d="M348 762h-121l70 151h137v-53zM242 0h-155v700h443v-135h-288v-565z" />
    <glyph glyph-name="afii10053" unicode="&#x404;" horiz-adv-x="661" 
d="M340 -15q-130 0 -201.5 66.5t-71.5 185.5v226q0 119 71.5 185.5t201.5 66.5q52 0 98 -14t84.5 -42t60.5 -76.5t22 -111.5h-142q0 49 -33 75.5t-90 26.5q-58 0 -88 -27.5t-30 -77.5v-53h210v-129h-210v-55q0 -49 30.5 -76.5t87.5 -27.5t90 26.5t33 75.5h142
q0 -63 -22 -111.5t-60.5 -76.5t-84.5 -42t-98 -14z" />
    <glyph glyph-name="afii10054" unicode="&#x405;" horiz-adv-x="652" 
d="M321 -15q-121 0 -200 63t-79 179h155q0 -37 23 -62q39 -38 115 -38q49 0 75.5 18t26.5 49q0 29 -28 44q-29 17 -106 42l-56 19q-75 25 -126 63q-62 48 -62 138q0 98 70 156q71 59 192 59q119 0 192 -61t73 -178h-156q0 46 -31.5 71.5t-81.5 25.5q-48 0 -74.5 -17
t-26.5 -48q0 -25 25 -45q7 -7 39 -18l51 -18l52 -18q109 -38 160 -84t51 -123q0 -100 -71 -158.5t-202 -58.5z" />
    <glyph glyph-name="uni0406" unicode="&#x406;" horiz-adv-x="329" 
d="M242 0h-155v700h155v-700z" />
    <glyph glyph-name="uni0407" unicode="&#x407;" horiz-adv-x="329" 
d="M242 0h-155v700h155v-700zM131 768h-152v118h152v-118zM353 768h-152v118h152v-118z" />
    <glyph glyph-name="uni0408" unicode="&#x408;" horiz-adv-x="588" 
d="M265 -15q-248 0 -248 225v32h155v-32q0 -83 93 -83q41 0 66 22t25 67v484h155v-490q0 -117 -68 -171q-67 -54 -178 -54z" />
    <glyph glyph-name="uni0409" unicode="&#x409;" horiz-adv-x="1004" 
d="M19 0v142q73 0 98 49t25 189v320h461v-261h159q93 0 146.5 -58.5t53.5 -160.5t-53.5 -161t-146.5 -59h-314v565h-164v-212q0 -182 -64.5 -267.5t-200.5 -85.5zM603 304v-169h130q31 0 51.5 22.5t20.5 62.5t-20.5 62t-51.5 22h-130z" />
    <glyph glyph-name="uni040A" unicode="&#x40a;" horiz-adv-x="1034" 
d="M792 0h-314v304h-237v-304h-155v700h155v-260h237v260h155v-260h159q93 0 146.5 -59t53.5 -161t-53.5 -161t-146.5 -59zM633 304v-169h130q31 0 51.5 22.5t20.5 62.5t-20.5 62t-51.5 22h-130z" />
    <glyph glyph-name="uni040B" unicode="&#x40b;" horiz-adv-x="767" 
d="M343 0h-155v565h-171v135h546v-135h-220v-138q51 6 106 6q261 0 261 -211v-222h-155v205q0 86 -119 86q-45 0 -93 -5v-286z" />
    <glyph glyph-name="uni040C" unicode="&#x40c;" horiz-adv-x="652" 
d="M242 0h-155v700h155v-282h61l169 282h140v-51l-178 -290l193 -308v-51h-150l-171 282h-64v-282zM387 762h-121l70 151h137v-53z" />
    <glyph glyph-name="uni040E" unicode="&#x40e;" horiz-adv-x="602" 
d="M166 0v51l74 153l-233 445v51h143l164 -329l146 329h135v-51l-288 -649h-141zM303 742q-77 0 -122 35t-45 98v13h121v-12q0 -36 46 -36q45 0 45 36v12h120v-13q0 -63 -44.5 -98t-120.5 -35z" />
    <glyph glyph-name="uni040F" unicode="&#x40f;" horiz-adv-x="715" 
d="M428 -137h-142v137h-199v700h155v-565h231v565h155v-700h-200v-137z" />
    <glyph glyph-name="uni0410" unicode="&#x410;" horiz-adv-x="661" 
d="M160 0h-143v51l237 649h152l238 -649v-51h-153l-52 159h-224zM327 492l-66 -204h131z" />
    <glyph glyph-name="uni0411" unicode="&#x411;" horiz-adv-x="671" 
d="M423 0h-336v700h494v-135h-339v-125h181q95 0 148.5 -59t53.5 -161t-53.5 -161t-148.5 -59zM242 305v-170h154q31 0 51.5 22.5t20.5 62.5t-20.5 62.5t-51.5 22.5h-154z" />
    <glyph glyph-name="uni0412" unicode="&#x412;" horiz-adv-x="670" 
d="M412 0h-325v700h296q101 0 156.5 -50t55.5 -145q0 -99 -75 -142q52 -25 78 -63.5t26 -101.5q0 -97 -55.5 -147.5t-156.5 -50.5zM242 281v-146h164q26 0 43.5 19t17.5 54t-17.5 54t-43.5 19h-164zM242 565v-155h131q28 0 46.5 20t18.5 57t-18.5 57.5t-46.5 20.5h-131z" />
    <glyph glyph-name="uni0413" unicode="&#x413;" horiz-adv-x="567" 
d="M242 0h-155v700h443v-135h-288v-565z" />
    <glyph glyph-name="uni0414" unicode="&#x414;" horiz-adv-x="728" 
d="M164 -137h-142v272h55q32 41 50 95t18 151v319h468v-565h77v-272h-142v137h-384v-137zM264 192l-21 -57h215v430h-171v-184q0 -61 -8 -115q-8 -52 -15 -74z" />
    <glyph glyph-name="uni0415" unicode="&#x415;" horiz-adv-x="607" 
d="M550 0h-463v700h461v-135h-306v-150h260v-129h-260v-151h308v-135z" />
    <glyph glyph-name="uni0416" unicode="&#x416;" horiz-adv-x="957" 
d="M557 0h-156v283h-66l-152 -283h-156v51l177 307l-163 291v51h142l155 -282h63v282h156v-282h63l155 282h142v-51l-163 -291l177 -307v-51h-156l-152 283h-66v-283z" />
    <glyph glyph-name="uni0417" unicode="&#x417;" horiz-adv-x="633" 
d="M327 -15q-77 0 -138 24q-64 25 -103 83t-39 140h155q0 -53 34.5 -79t92.5 -26q101 0 101 79q0 77 -102 77h-88v129h88q42 0 65 20q23 21 23 58q0 38 -25 60q-25 23 -68 23q-47 0 -74.5 -26t-27.5 -79h-156q0 124 74 186q73 61 186 61q117 0 182 -60q66 -59 66 -151
q0 -97 -81 -151q95 -41 95 -149q0 -101 -69 -160t-191 -59z" />
    <glyph glyph-name="uni0418" unicode="&#x418;" horiz-adv-x="725" 
d="M229 0h-142v700h155v-422l254 422h142v-700h-155v422z" />
    <glyph glyph-name="uni0419" unicode="&#x419;" horiz-adv-x="725" 
d="M229 0h-142v700h155v-422l254 422h142v-700h-155v422zM363 742q-77 0 -122 35t-45 98v13h121v-12q0 -36 46 -36q45 0 45 36v12h120v-13q0 -63 -44.5 -98t-120.5 -35z" />
    <glyph glyph-name="uni041A" unicode="&#x41a;" horiz-adv-x="652" 
d="M242 0h-155v700h155v-282h61l169 282h140v-51l-178 -290l193 -308v-51h-150l-171 282h-64v-282z" />
    <glyph glyph-name="uni041B" unicode="&#x41b;" horiz-adv-x="690" 
d="M19 0v142q73 0 98 49t25 189v320h461v-700h-155v565h-164v-212q0 -182 -64.5 -267.5t-200.5 -85.5z" />
    <glyph glyph-name="uni041C" unicode="&#x41c;" horiz-adv-x="817" 
d="M237 0h-150v700h150l175 -293l175 293h143v-700h-150v425l-124 -212h-96l-123 212v-425z" />
    <glyph glyph-name="uni041D" unicode="&#x41d;" horiz-adv-x="720" 
d="M242 0h-155v700h155v-282h236v282h155v-700h-155v283h-236v-283z" />
    <glyph glyph-name="uni041E" unicode="&#x41e;" horiz-adv-x="696" 
d="M474 231v238q0 45 -33 74.5t-93 29.5t-93 -29.5t-33 -74.5v-238q0 -45 33 -74.5t93 -29.5t93 29.5t33 74.5zM629 461v-223q0 -119 -76 -186t-205 -67t-205 67t-76 186v223q0 119 75.5 186.5t205.5 67.5t205.5 -67.5t75.5 -186.5z" />
    <glyph glyph-name="uni041F" unicode="&#x41f;" horiz-adv-x="714" 
d="M242 0h-155v700h540v-700h-155v565h-230v-565z" />
    <glyph glyph-name="uni0420" unicode="&#x420;" horiz-adv-x="643" 
d="M242 0h-155v700h314q93 0 146.5 -59t53.5 -161t-53.5 -160.5t-146.5 -58.5h-159v-261zM242 565v-169h130q31 0 51.5 22t20.5 62t-20.5 62.5t-51.5 22.5h-130z" />
    <glyph glyph-name="uni0421" unicode="&#x421;" horiz-adv-x="661" 
d="M343 -15q-134 0 -205 65.5t-71 186.5v226q0 121 71 186.5t205 65.5q114 0 188 -62t74 -185v-10h-156v10q0 52 -32 78.5t-84 26.5q-111 0 -111 -99v-248q0 -99 111 -99q53 0 84.5 25.5t31.5 79.5v10h156v-10q0 -124 -74 -186q-73 -61 -188 -61z" />
    <glyph glyph-name="uni0422" unicode="&#x422;" horiz-adv-x="574" 
d="M365 0h-155v565h-193v135h540v-135h-192v-565z" />
    <glyph glyph-name="uni0423" unicode="&#x423;" horiz-adv-x="602" 
d="M166 0v51l74 153l-233 445v51h143l164 -329l146 329h135v-51l-288 -649h-141z" />
    <glyph glyph-name="uni0424" unicode="&#x424;" horiz-adv-x="896" 
d="M525 -12h-155v87h-36q-118 0 -203 67q-84 68 -84 185v72q0 117 84 185q85 67 203 67h36v75h155v-75h37q119 0 202 -67q85 -67 85 -185v-72q0 -118 -85 -185q-83 -67 -202 -67h-37v-87zM328 210h42v306h-42q-56 0 -91 -36q-35 -37 -35 -84v-66q0 -47 35 -84q35 -36 91 -36
zM525 516v-306h44q55 0 90 36q35 37 35 84v66q0 47 -35 84q-35 36 -90 36h-44z" />
    <glyph glyph-name="uni0425" unicode="&#x425;" horiz-adv-x="667" 
d="M175 0h-148v51l211 314l-189 284v51h158l127 -213l136 213h149v-51l-191 -283l213 -315v-51h-158l-153 241z" />
    <glyph glyph-name="uni0426" unicode="&#x426;" horiz-adv-x="736" 
d="M698 -137h-142v137h-469v700h155v-565h223v565h156v-565h77v-272z" />
    <glyph glyph-name="uni0427" unicode="&#x427;" horiz-adv-x="666" 
d="M579 0h-155v246q-62 -9 -105 -9q-262 0 -262 211v252h155v-235q0 -86 118 -86q54 0 94 9v312h155v-700z" />
    <glyph glyph-name="uni0428" unicode="&#x428;" horiz-adv-x="1012" 
d="M925 0h-838v700h155v-565h187v565h155v-565h186v565h155v-700z" />
    <glyph glyph-name="uni0429" unicode="&#x429;" horiz-adv-x="1040" 
d="M1002 -137h-142v137h-773v700h155v-565h187v565h155v-565h186v565h155v-565h77v-272z" />
    <glyph glyph-name="uni042A" unicode="&#x42a;" horiz-adv-x="715" 
d="M473 0h-314v565h-152v135h307v-261h159q93 0 146.5 -58.5t53.5 -160.5t-53.5 -161t-146.5 -59zM314 304v-169h130q31 0 51.5 22.5t20.5 62.5t-20.5 62t-51.5 22h-130z" />
    <glyph glyph-name="uni042B" unicode="&#x42b;" horiz-adv-x="919" 
d="M401 0h-314v700h155v-261h159q93 0 146.5 -58.5t53.5 -160.5t-53.5 -161t-146.5 -59zM242 304v-169h130q31 0 51.5 22.5t20.5 62.5t-20.5 62t-51.5 22h-130zM832 0h-155v700h155v-700z" />
    <glyph glyph-name="uni042C" unicode="&#x42c;" horiz-adv-x="643" 
d="M401 0h-314v700h155v-261h159q93 0 146.5 -58.5t53.5 -160.5t-53.5 -161t-146.5 -59zM242 304v-169h130q31 0 51.5 22.5t20.5 62.5t-20.5 62t-51.5 22h-130z" />
    <glyph glyph-name="uni042D" unicode="&#x42d;" horiz-adv-x="663" 
d="M323 -15q-52 0 -98 14t-84.5 42t-60.5 76.5t-22 111.5h142q0 -49 33 -75.5t90 -26.5t87.5 27.5t30.5 76.5v55h-210v129h210v53q0 50 -30 77.5t-88 27.5q-57 0 -90 -26.5t-33 -75.5h-142q0 63 22 111.5t60.5 76.5t84.5 42t98 14q130 0 201.5 -66.5t71.5 -185.5v-226
q0 -119 -71.5 -185.5t-201.5 -66.5z" />
    <glyph glyph-name="uni042E" unicode="&#x42e;" horiz-adv-x="955" 
d="M617 127q55 0 85.5 27.5t30.5 68.5v254q0 41 -30.5 68.5t-85.5 27.5t-86 -27.5t-31 -68.5v-254q0 -41 31 -68.5t86 -27.5zM345 229v54h-103v-283h-155v700h155v-282h103v52q0 116 73 180q74 65 198 65q126 0 199 -65.5t73 -179.5v-241q0 -114 -73 -179t-199 -65
q-125 0 -198 64t-73 180z" />
    <glyph glyph-name="uni042F" unicode="&#x42f;" horiz-adv-x="666" 
d="M192 0h-144v51l123 214q-108 65 -108 203q0 110 57.5 171t164.5 61h294v-700h-156v246h-100zM324 375h99v190h-104q-50 0 -74.5 -21.5t-24.5 -71.5q0 -97 104 -97z" />
    <glyph glyph-name="uni0430" unicode="&#x430;" horiz-adv-x="571" 
d="M499 0h-82l-39 49q-64 -61 -159 -61q-74 0 -126 41q-51 42 -51 117q0 83 53.5 127t158.5 44h103v29q0 64 -76 64t-76 -52h-139q0 83 55.5 131.5t159.5 48.5t161 -49t57 -133v-356zM249 113q66 0 108 46v58h-103q-70 0 -70 -52q0 -24 17 -38t48 -14z" />
    <glyph glyph-name="uni0431" unicode="&#x431;" horiz-adv-x="577" 
d="M293 -12q-107 0 -169 51t-62 142v182q0 112 34.5 175t110.5 87l124 38q25 7 25 37v5h142v-5q0 -76 -39 -115q-8 -10 -30 -19q-34 -15 -74 -27l-87 -26q-41 -12 -58.5 -34.5t-17.5 -66.5v-19q18 31 56 52t87 21q85 0 136.5 -48.5t51.5 -143.5v-91q0 -91 -64 -143
q-62 -52 -166 -52zM293 116q41 0 64.5 20t23.5 52v77q0 34 -23.5 53.5t-60.5 19.5q-57 0 -93 -45v-105q0 -32 23 -52t66 -20z" />
    <glyph glyph-name="uni0432" unicode="&#x432;" horiz-adv-x="585" 
d="M332 0h-255v526h248q187 0 187 -141q0 -71 -49 -113q73 -34 73 -115q0 -86 -49.5 -121.5t-154.5 -35.5zM215 212v-93h123q22 0 34 13t12 33q0 47 -46 47h-123zM215 407v-91h101q22 0 34 12.5t12 32.5q0 46 -46 46h-101z" />
    <glyph glyph-name="uni0433" unicode="&#x433;" horiz-adv-x="477" 
d="M219 0h-142v526h363v-123h-221v-403z" />
    <glyph glyph-name="uni0434" unicode="&#x434;" horiz-adv-x="645" 
d="M165 -123h-140v246h49q47 39 47 170v233h417v-403h75v-246h-138v123h-310v-123zM228 123h168v280h-141v-133q0 -82 -27 -147z" />
    <glyph glyph-name="uni0435" unicode="&#x435;" horiz-adv-x="559" 
d="M285 -12q-107 0 -169 51t-62 142v163q0 90 62.5 142t168.5 52q101 0 161 -51t60 -141v-130h-310v-34q0 -31 22.5 -48.5t66.5 -17.5q63 0 78 44h142q-8 -81 -66 -126.5t-154 -45.5zM196 346v-27h168v27q0 30 -21.5 47t-62.5 17t-62.5 -17t-21.5 -47z" />
    <glyph glyph-name="uni0436" unicode="&#x436;" horiz-adv-x="798" 
d="M163 0h-126v66l132 201l-124 193v66h117l129 -202h37v202h142v-202h39l128 202h117v-66l-124 -193l132 -201v-66h-126l-124 201h-42v-201h-142v201h-40z" />
    <glyph glyph-name="uni0437" unicode="&#x437;" horiz-adv-x="566" 
d="M287 -12q-113 0 -177 55.5t-65 152.5h137q1 -79 105 -79q35 0 57 13.5t22 37.5q0 41 -54 41h-78v114h74q21 0 33 11.5t12 29.5q0 22 -19 34t-52 12q-87 0 -89 -77h-137q1 99 60 152t170 53q94 0 155 -44q60 -44 60 -117q0 -63 -50 -104q63 -39 63 -112q0 -83 -59.5 -128
t-167.5 -45z" />
    <glyph glyph-name="uni0438" unicode="&#x438;" horiz-adv-x="621" 
d="M219 0h-142v526h142v-307l183 307h142v-526h-142v307z" />
    <glyph glyph-name="uni0439" unicode="&#x439;" horiz-adv-x="621" 
d="M219 0h-142v526h142v-307l183 307h142v-526h-142v307zM144 713v12h121v-11q0 -36 45 -36q47 0 47 36v11h119v-12q0 -63 -45 -100t-121 -37t-121 37t-45 100z" />
    <glyph glyph-name="uni043A" unicode="&#x43a;" horiz-adv-x="566" 
d="M219 0h-142v526h142v-202h35l148 202h121v-66l-142 -193l149 -201v-66h-130l-147 201h-34v-201z" />
    <glyph glyph-name="uni043B" unicode="&#x43b;" horiz-adv-x="615" 
d="M126 262v264h412v-526h-142v403h-137v-194q0 -102 -56 -156q-56 -53 -135 -53h-35v129h14q40 0 61 23q8 8 13 29q5 28 5 81z" />
    <glyph glyph-name="uni043C" unicode="&#x43c;" horiz-adv-x="705" 
d="M219 0h-142v526h142l136 -226l131 226h142v-526h-142v307l-101 -177h-65l-101 177v-307z" />
    <glyph glyph-name="uni043D" unicode="&#x43d;" horiz-adv-x="610" 
d="M219 0h-142v526h142v-201h172v201h142v-526h-142v202h-172v-202z" />
    <glyph glyph-name="uni043E" unicode="&#x43e;" horiz-adv-x="569" 
d="M285 116q41 0 64.5 20t23.5 52v149q0 33 -23.5 53t-64.5 20q-43 0 -66 -20.5t-23 -52.5v-149q0 -32 23 -52t66 -20zM54 183v161q0 88 61 141t170 53t169.5 -53t60.5 -141v-161q0 -88 -60.5 -141.5t-169.5 -53.5t-170 53.5t-61 141.5z" />
    <glyph glyph-name="uni043F" unicode="&#x43f;" horiz-adv-x="605" 
d="M219 0h-142v526h451v-526h-142v403h-167v-403z" />
    <glyph glyph-name="uni0440" unicode="&#x440;" horiz-adv-x="600" 
d="M77 526h81l39 -49q67 61 154 61q84 0 135.5 -50t51.5 -142v-165q0 -94 -53 -144q-52 -49 -134 -49t-132 43v-191h-142v686zM322 116q29 0 51.5 20.5t22.5 54.5v144q0 34 -22.5 54.5t-51.5 20.5q-53 0 -103 -50v-194q50 -50 103 -50z" />
    <glyph glyph-name="uni0441" unicode="&#x441;" horiz-adv-x="545" 
d="M279 -12q-103 0 -164 52.5t-61 142.5v161q0 90 61 142t164 52q100 0 158.5 -53t58.5 -146v-6h-142v6q0 33 -20.5 52t-59.5 19q-78 0 -78 -64v-166q0 -64 78 -64q39 0 59.5 18t20.5 51v11h142v-7q0 -93 -61 -147q-60 -54 -156 -54z" />
    <glyph glyph-name="uni0442" unicode="&#x442;" horiz-adv-x="499" 
d="M321 0h-142v403h-162v123h465v-123h-161v-403z" />
    <glyph glyph-name="uni0443" unicode="&#x443;" horiz-adv-x="517" 
d="M262 -160h-116v51l48 109l-177 460v66h131l116 -332l108 332h129v-66z" />
    <glyph glyph-name="uni0444" unicode="&#x444;" horiz-adv-x="829" 
d="M485 -160h-142v196q-43 -48 -119 -48q-68 0 -115 47q-47 49 -47 135v186q0 88 47 135t115 47q77 0 119 -48v215h142v-215q42 48 119 48q71 0 117 -48.5t46 -133.5v-186q0 -85 -46 -133.5t-117 -48.5q-76 0 -119 48v-196zM271 116q44 0 72 25v243q-31 26 -72 26
q-28 0 -47.5 -21t-19.5 -53v-147q0 -32 19.5 -52.5t47.5 -20.5zM557 116q28 0 48 20.5t20 52.5v147q0 32 -20 53t-48 21q-40 0 -72 -26v-243q29 -25 72 -25z" />
    <glyph glyph-name="uni0445" unicode="&#x445;" horiz-adv-x="532" 
d="M158 0h-121v66l140 197l-138 197v66h128l98 -155l101 155h120v-66l-133 -191l143 -203v-66h-127l-106 167z" />
    <glyph glyph-name="uni0446" unicode="&#x446;" horiz-adv-x="631" 
d="M599 -123h-140v123h-382v526h142v-403h161v403h142v-403h77v-246z" />
    <glyph glyph-name="uni0447" unicode="&#x447;" horiz-adv-x="578" 
d="M501 0h-142v173q-50 -11 -98 -11q-103 0 -158.5 44.5t-55.5 133.5v186h142v-171q0 -65 96 -65q37 0 74 9v227h142v-526z" />
    <glyph glyph-name="uni0448" unicode="&#x448;" horiz-adv-x="825" 
d="M748 0h-671v526h142v-403h123v403h142v-403h122v403h142v-526z" />
    <glyph glyph-name="uni0449" unicode="&#x449;" horiz-adv-x="857" 
d="M825 -123h-140v123h-608v526h142v-403h123v403h142v-403h122v403h142v-403h77v-246z" />
    <glyph glyph-name="uni044A" unicode="&#x44a;" horiz-adv-x="592" 
d="M398 0h-267v403h-134v123h276v-158h125q78 0 122.5 -49.5t44.5 -134.5t-44.5 -134.5t-122.5 -49.5zM273 245v-122h89q61 0 61 61t-61 61h-89z" />
    <glyph glyph-name="uni044B" unicode="&#x44b;" horiz-adv-x="779" 
d="M333 0h-256v526h142v-158h114q78 0 122.5 -50t44.5 -134t-44.5 -134t-122.5 -50zM219 245v-122h78q61 0 61 61t-61 61h-78zM702 0h-142v526h142v-526z" />
    <glyph glyph-name="uni044C" unicode="&#x44c;" horiz-adv-x="537" 
d="M343 0h-266v526h142v-158h124q78 0 122.5 -50t44.5 -134t-44.5 -134t-122.5 -50zM219 245v-122h88q61 0 61 61t-61 61h-88z" />
    <glyph glyph-name="uni044D" unicode="&#x44d;" horiz-adv-x="553" 
d="M272 -12q-102 0 -162 56t-60 152h142q0 -80 85 -80q80 0 80 69v20h-128v114h128v22q0 69 -81 69q-41 0 -62.5 -20.5t-21.5 -56.5h-142q0 97 59 151t163 54q105 0 166 -52.5t61 -144.5v-155q0 -92 -61 -145t-166 -53z" />
    <glyph glyph-name="uni044E" unicode="&#x44e;" horiz-adv-x="799" 
d="M293 179v23h-74v-202h-142v526h142v-201h74v23q0 86 59.5 138t166.5 52t166.5 -52t59.5 -138v-169q0 -87 -59.5 -139t-166.5 -52t-166.5 52t-59.5 139zM519 116q39 0 61.5 19t22.5 49v157q0 31 -22.5 50t-61.5 19q-40 0 -62 -19.5t-22 -49.5v-157q0 -30 22 -49t62 -19z
" />
    <glyph glyph-name="uni044F" unicode="&#x44f;" horiz-adv-x="571" 
d="M187 0h-132v66l90 124q-95 41 -95 163q0 81 43 127t112 46h289v-526h-142v182h-48zM352 296v107h-106q-54 0 -54 -54q0 -53 54 -53h106z" />
    <glyph glyph-name="uni0451" unicode="&#x451;" horiz-adv-x="559" 
d="M285 -12q-107 0 -169 51t-62 142v163q0 90 62.5 142t168.5 52q101 0 161 -51t60 -141v-130h-310v-34q0 -31 22.5 -48.5t66.5 -17.5q63 0 78 44h142q-8 -81 -66 -126.5t-154 -45.5zM196 346v-27h168v27q0 30 -21.5 47t-62.5 17t-62.5 -17t-21.5 -47zM253 595h-142v110h142
v-110zM460 595h-142v110h142v-110z" />
    <glyph glyph-name="uni0452" unicode="&#x452;" horiz-adv-x="601" 
d="M545 239v-216q0 -78 -46 -136q-47 -59 -140 -59q-17 0 -37 2v127h21q60 0 60 68v206q0 41 -20 63t-53 22q-55 0 -99 -50v-266h-142v527h-77v101h77v77h142v-77h182v-101h-182v-126q55 43 131 43q86 0 134.5 -54.5t48.5 -150.5z" />
    <glyph glyph-name="uni0453" unicode="&#x453;" horiz-adv-x="477" 
d="M219 0h-142v526h363v-123h-221v-403zM293 590h-113l65 140h128v-49z" />
    <glyph glyph-name="uni0454" unicode="&#x454;" horiz-adv-x="552" 
d="M281 -12q-105 0 -166 53t-61 145v155q0 92 61 144.5t166 52.5q104 0 163 -54t59 -151h-142q0 36 -21.5 56.5t-62.5 20.5q-81 0 -81 -69v-22h128v-114h-128v-20q0 -69 80 -69q85 0 85 80h142q0 -96 -60 -152t-162 -56z" />
    <glyph glyph-name="uni0455" unicode="&#x455;" horiz-adv-x="549" 
d="M279 -12q-105 0 -169 54t-65 139h138q13 -67 109 -67q69 0 69 37q0 28 -46 40l-129 33q-128 33 -128 142q0 81 56 126.5t157 45.5q97 0 157 -49.5t63 -133.5h-137q-16 57 -92 57q-66 0 -66 -38q0 -22 42 -32l138 -35q123 -31 123 -145q0 -81 -59 -127.5t-161 -46.5z" />
    <glyph glyph-name="uni0456" unicode="&#x456;" horiz-adv-x="296" 
d="M219 0h-142v526h142v-526zM219 595h-142v110h142v-110z" />
    <glyph glyph-name="uni0457" unicode="&#x457;" horiz-adv-x="296" 
d="M116 595h-142v110h142v-110zM323 595h-142v110h142v-110zM219 0h-142v526h142v-526z" />
    <glyph glyph-name="uni0458" unicode="&#x458;" horiz-adv-x="297" 
d="M78 24v502h142v-503q0 -78 -46 -136q-47 -59 -140 -59q-17 0 -37 2v126h21q60 0 60 68zM220 595h-142v110h142v-110z" />
    <glyph glyph-name="uni0459" unicode="&#x459;" horiz-adv-x="856" 
d="M126 262v264h412v-158h124q78 0 122.5 -50t44.5 -134t-44.5 -134t-122.5 -50h-266v403h-137v-194q0 -102 -56 -156q-56 -53 -135 -53h-35v129h14q40 0 61 23q8 8 13 29q5 28 5 81zM538 245v-122h88q61 0 61 61t-61 61h-88z" />
    <glyph glyph-name="uni045A" unicode="&#x45a;" horiz-adv-x="851" 
d="M657 0h-266v202h-172v-202h-142v526h142v-201h172v201h142v-158h124q78 0 122.5 -50t44.5 -134t-44.5 -134t-122.5 -50zM533 245v-122h88q61 0 61 61t-61 61h-88z" />
    <glyph glyph-name="uni045B" unicode="&#x45b;" horiz-adv-x="606" 
d="M231 0h-142v527h-77v101h77v77h142v-77h182v-101h-182v-126q55 43 131 43q86 0 134.5 -54.5t48.5 -150.5v-239h-142v231q0 41 -20 63t-53 22q-55 0 -99 -50v-266z" />
    <glyph glyph-name="uni045C" unicode="&#x45c;" horiz-adv-x="566" 
d="M219 0h-142v526h142v-202h35l148 202h121v-66l-142 -193l149 -201v-66h-130l-147 201h-34v-201zM330 590h-113l65 140h128v-49z" />
    <glyph glyph-name="uni045E" unicode="&#x45e;" horiz-adv-x="517" 
d="M262 -160h-116v51l48 109l-177 460v66h131l116 -332l108 332h129v-66zM95 713v12h121v-11q0 -36 45 -36q47 0 47 36v11h119v-12q0 -63 -45 -100t-121 -37t-121 37t-45 100z" />
    <glyph glyph-name="uni045F" unicode="&#x45f;" horiz-adv-x="605" 
d="M372 -123h-139v123h-156v526h142v-403h167v403h142v-526h-156v-123z" />
    <glyph glyph-name="uni0490" unicode="&#x490;" horiz-adv-x="561" 
d="M242 0h-155v700h295v130h142v-265h-282v-565z" />
    <glyph glyph-name="uni0491" unicode="&#x491;" horiz-adv-x="472" 
d="M219 0h-142v526h218v128h140v-251h-216v-403z" />
    <glyph glyph-name="uni1E61" unicode="&#x1e61;" horiz-adv-x="549" 
d="M279 -12q-105 0 -169 54t-65 139h138q13 -67 109 -67q69 0 69 37q0 28 -46 40l-129 33q-128 33 -128 142q0 81 56 126.5t157 45.5q97 0 157 -49.5t63 -133.5h-137q-16 57 -92 57q-66 0 -66 -38q0 -22 42 -32l138 -35q123 -31 123 -145q0 -81 -59 -127.5t-161 -46.5z
M348 595h-142v110h142v-110z" />
    <glyph glyph-name="uni1E63" unicode="&#x1e63;" horiz-adv-x="549" 
d="M279 -12q-105 0 -169 54t-65 139h138q13 -67 109 -67q69 0 69 37q0 28 -46 40l-129 33q-128 33 -128 142q0 81 56 126.5t157 45.5q97 0 157 -49.5t63 -133.5h-137q-16 57 -92 57q-66 0 -66 -38q0 -22 42 -32l138 -35q123 -31 123 -145q0 -81 -59 -127.5t-161 -46.5z
M339 -182h-142v110h142v-110z" />
    <glyph glyph-name="endash" unicode="&#x2013;" horiz-adv-x="606" 
d="M551 254h-495v118h495v-118z" />
    <glyph glyph-name="emdash" unicode="&#x2014;" horiz-adv-x="860" 
d="M804 254h-748v118h748v-118z" />
    <glyph glyph-name="quoteleft" unicode="&#x2018;" horiz-adv-x="249" 
d="M116 705h100q-1 -5 -7 -41.5t-10 -58.5q-11 -71 -29 -168h-140v60z" />
    <glyph glyph-name="quoteright" unicode="&#x2019;" horiz-adv-x="249" 
d="M133 437h-100l16 99l30 169h140v-60z" />
    <glyph glyph-name="quotesinglbase" unicode="&#x201a;" horiz-adv-x="289" 
d="M133 -123h-100l16 100l30 168h140v-60z" />
    <glyph glyph-name="quotedblleft" unicode="&#x201c;" horiz-adv-x="457" 
d="M116 705h100q-1 -5 -7 -41.5t-10 -58.5q-11 -71 -29 -168h-140v60zM324 705h100q-1 -5 -7 -41.5t-10 -58.5q-11 -71 -29 -168h-140v60z" />
    <glyph glyph-name="quotedblright" unicode="&#x201d;" horiz-adv-x="457" 
d="M133 437h-100l16 99l30 169h140v-60zM341 437h-100l16 99l30 169h140v-60z" />
    <glyph glyph-name="quotedblbase" unicode="&#x201e;" horiz-adv-x="487" 
d="M341 -123h-100l16 100l30 168h140v-60zM133 -123h-100l16 100l30 168h140v-60z" />
    <glyph glyph-name="dagger" unicode="&#x2020;" horiz-adv-x="550" 
d="M347 -160h-142v563h-178v123h178v179h142v-179h176v-123h-176v-563z" />
    <glyph glyph-name="daggerdbl" unicode="&#x2021;" horiz-adv-x="550" 
d="M347 -160h-142v276h-178v123h178v164h-178v123h178v179h142v-179h176v-123h-176v-164h176v-123h-176v-276z" />
    <glyph glyph-name="bullet" unicode="&#x2022;" horiz-adv-x="468" 
d="M234 142q-84 0 -130.5 45t-46.5 129v8q0 83 46.5 128.5t130.5 45.5t130.5 -45.5t46.5 -128.5v-8q0 -83 -46.5 -128.5t-130.5 -45.5z" />
    <glyph glyph-name="ellipsis" unicode="&#x2026;" horiz-adv-x="775" 
d="M221 0h-154v145h154v-145zM465 0h-154v145h154v-145zM708 0h-154v145h154v-145z" />
    <glyph glyph-name="perthousand" unicode="&#x2030;" horiz-adv-x="1162" 
d="M236 0h-80v51l411 649h80v-51zM233 495v82q0 15 -10.5 26t-25.5 11t-25.5 -11t-10.5 -26v-82q0 -15 10.5 -26t25.5 -11t25.5 11t10.5 26zM37 515v42q0 77 42 117.5t118 40.5t118 -40.5t42 -117.5v-42q0 -77 -42 -117.5t-118 -40.5t-118 40.5t-42 117.5zM639 123v82
q0 15 -10.5 26t-25.5 11t-25.5 -11t-10.5 -26v-82q0 -15 10.5 -26t25.5 -11t25.5 11t10.5 26zM443 143v42q0 77 42 117.5t118 40.5t118 -40.5t42 -117.5v-42q0 -77 -42 -117.5t-118 -40.5t-118 40.5t-42 117.5zM1001 123v82q0 15 -10.5 26t-25.5 11t-25.5 -11t-10.5 -26v-82
q0 -15 10.5 -26t25.5 -11t25.5 11t10.5 26zM805 143v42q0 77 42 117.5t118 40.5t118 -40.5t42 -117.5v-42q0 -77 -42 -117.5t-118 -40.5t-118 40.5t-42 117.5z" />
    <glyph glyph-name="guilsinglleft" unicode="&#x2039;" horiz-adv-x="336" 
d="M276 105h-122l-120 211l120 210h122v-40l-94 -170l94 -171v-40z" />
    <glyph glyph-name="guilsinglright" unicode="&#x203a;" horiz-adv-x="336" 
d="M182 526l120 -210l-120 -211h-122v40l94 171l-94 170v40h122z" />
    <glyph glyph-name="fraction" unicode="&#x2044;" horiz-adv-x="405" 
d="M37 0h-80v51l411 649h80v-51z" />
    <glyph glyph-name="fourinferior" unicode="&#x2084;" horiz-adv-x="363" 
d="M24 493l119 207h76v-55l-86 -152h62v64h99v-64h38v-83h-38v-52h-99v52h-171v83z" />
    <glyph glyph-name="Euro" unicode="&#x20ac;" horiz-adv-x="677" 
d="M372 -15q-112 0 -181 56t-78 159h-83v112h84v75h-84v112h85q8 102 75 159t182 57q107 0 178 -62t71 -185v-10h-134v10q0 60 -31.5 89.5t-84.5 29.5q-102 0 -114 -88h142v-112h-143v-75h143v-112h-143q10 -87 115 -87q116 0 116 119v10h134v-10q0 -123 -65.5 -185
t-183.5 -62z" />
    <glyph glyph-name="uni20B4" unicode="&#x20b4;" horiz-adv-x="702" 
d="M357 -15q-112 0 -180 53q-67 52 -67 141v47h-70v101h622v-101h-410v-30q0 -83 105 -83q49 0 76 22t27 58h142q0 -97 -67 -152q-68 -56 -178 -56zM40 474h413v30q0 83 -105 83q-49 0 -76 -22t-27 -58h-142q0 96 68 152t178 56q114 0 180 -54.5t66 -148.5v-38h67v-101h-622
v101z" />
    <glyph glyph-name="uni20BD" unicode="&#x20bd;" horiz-adv-x="641" 
d="M251 0h-142v99h-82v112h82v68h-82v123h82v298h288q95 0 148.5 -56t53.5 -155q0 -97 -53.5 -153.5t-148.5 -56.5h-146v-68h163v-112h-163v-99zM251 577v-175h129q33 0 55 22.5t22 64.5t-22 65t-55 23h-129z" />
    <glyph glyph-name="uni2116" unicode="&#x2116;" horiz-adv-x="1037" 
d="M229 0h-142v700h130l228 -411v411h142v-700h-132l-226 410v-410zM866 495v82q0 15 -10.5 26t-25.5 11t-25.5 -11t-10.5 -26v-82q0 -15 10.5 -26t25.5 -11t25.5 11t10.5 26zM670 515v42q0 77 42 117.5t118 40.5t118 -40.5t42 -117.5v-42q0 -77 -42 -117.5t-118 -40.5
t-118 40.5t-42 117.5zM990 192h-320v108h320v-108z" />
    <glyph glyph-name="trademark" unicode="&#x2122;" horiz-adv-x="688" 
d="M401 377h-82v323h80l80 -134l84 134h77v-323h-80v190l-56 -95h-51l-52 93v-188zM178 377h-82v251h-89v72h260v-72h-89v-251z" />
    <glyph glyph-name="Omega" unicode="&#x2126;" horiz-adv-x="726" 
d="M237 469v-190q0 -48 16 -89q16 -42 56 -55v-135h-244v135h72q-24 21 -38 49q-12 25 -14.5 43t-2.5 56v178q0 119 75.5 186.5t205.5 67.5t205.5 -67.5t75.5 -186.5v-178q0 -27 -2 -53q-3 -21 -16.5 -48t-36.5 -47h72v-135h-244v135q40 13 56 55q16 41 16 89v190
q0 45 -33 74.5t-93 29.5t-93 -29.5t-33 -74.5z" />
    <glyph glyph-name="partialdiff" unicode="&#x2202;" horiz-adv-x="575" 
d="M257 -12q-97 0 -156 44.5t-59 121.5q0 27 10 126q9 95 62.5 143.5t138.5 48.5q49 0 87.5 -21t55.5 -52q4 36 4 52q0 128 -159 128q-51 0 -109 -11l9 125q56 14 136 14q118 0 186 -64t68 -176q0 -20 -25 -286q-7 -91 -76 -143q-68 -50 -173 -50zM268 116q43 0 68 20t27 52
l10 110q-34 46 -89 46q-37 0 -62 -19.5t-29 -54.5q-7 -53 -7 -90q0 -29 21.5 -46.5t60.5 -17.5z" />
    <glyph glyph-name="increment" unicode="&#x2206;" horiz-adv-x="661" 
d="M644 0h-627v52l237 648h152l238 -648v-52zM327 492l-117 -357h232z" />
    <glyph glyph-name="product" unicode="&#x220f;" horiz-adv-x="681" 
d="M229 -75h-142v775h507v-775h-142v646h-223v-646z" />
    <glyph glyph-name="summation" unicode="&#x2211;" horiz-adv-x="574" 
d="M527 -75h-480v129l144 260l-144 257v129h467v-129h-309l144 -257l-144 -260h322v-129z" />
    <glyph glyph-name="minus" unicode="&#x2212;" horiz-adv-x="579" 
d="M516 254h-453v118h453v-118z" />
    <glyph glyph-name="radical" unicode="&#x221a;" horiz-adv-x="546" 
d="M356 -75h-121l-151 405h-86v106h173l111 -337l154 698h107v-50z" />
    <glyph glyph-name="infinity" unicode="&#x221e;" horiz-adv-x="913" 
d="M263 522q97 0 189 -88l5 -5l6 5q92 88 188 88q93 0 149 -57q56 -58 56 -141t-56 -141q-56 -57 -149 -57q-95 0 -190 90l-4 3l-3 -3q-95 -91 -191 -91q-95 0 -151 57q-55 58 -55 142q0 85 55 141q56 57 151 57zM267 259q38 0 87 49l15 16l-14 16q-49 48 -88 48
q-29 0 -48.5 -17.5t-19.5 -46.5q0 -28 20 -46.5t48 -18.5zM647 259q29 0 49 18t20 47q0 28 -20 46t-49 18q-38 0 -83 -45l-18 -19l18 -19q47 -46 83 -46z" />
    <glyph glyph-name="integral" unicode="&#x222b;" horiz-adv-x="312" 
d="M228 512v-480q0 -78 -46 -136q-47 -59 -140 -59q-19 0 -39 2v126h23q60 0 60 67v480q0 78 46 136q47 59 140 59q19 0 39 -2v-126h-23q-60 0 -60 -67z" />
    <glyph glyph-name="approxequal" unicode="&#x2248;" horiz-adv-x="544" 
d="M159 116l-96 55q53 120 137 120q37 0 72 -23l28 -18q20 -13 36 -13q23 0 49 46l96 -55q-51 -120 -136 -120q-37 0 -72 23l-28 17q-26 14 -36 14q-24 0 -50 -46zM159 356l-96 55q53 120 137 120q37 0 72 -23l28 -18q20 -13 36 -13q23 0 49 46l96 -55q-51 -120 -136 -120
q-37 0 -72 23l-28 17q-26 14 -36 14q-24 0 -50 -46z" />
    <glyph glyph-name="notequal" unicode="&#x2260;" horiz-adv-x="580" 
d="M156 0h-93v51l60 95h-60v118h136l62 98h-198v118h273l87 136h94v-51l-54 -85h54v-118h-130l-61 -98h191v-118h-268z" />
    <glyph glyph-name="lessequal" unicode="&#x2264;" horiz-adv-x="539" 
d="M476 197h-67l-346 151v115l346 152h67v-98l-258 -112l258 -110v-98zM476 0h-413v118h413v-118z" />
    <glyph glyph-name="greaterequal" unicode="&#x2265;" horiz-adv-x="539" 
d="M130 197h-67v98l258 110l-258 112v98h67l346 -152v-115zM476 0h-413v118h413v-118z" />
    <glyph glyph-name="lozenge" unicode="&#x25ca;" horiz-adv-x="564" 
d="M335 0h-106l-182 350l182 350h107l181 -350zM198 350l84 -172l85 172l-85 172z" />
    <glyph glyph-name="uniF64E" unicode="&#xf64e;" horiz-adv-x="590" 
d="M101 158h-69v85h67v41h-67v85h68q8 80 68 124.5t155 44.5q96 0 152 -46t64 -132h-130q-13 57 -87 57q-76 0 -89 -48h132v-85h-135v-41h135v-85h-129q6 -22 29.5 -35.5t56.5 -13.5q75 0 87 61h131q-8 -85 -66 -133.5t-151 -48.5t-153.5 46t-68.5 124z" />
    <glyph glyph-name="uniF653" unicode="&#xf653;" horiz-adv-x="555" 
d="M348 -5v-84h-123v81q-82 13 -130 64t-50 125h138q13 -67 109 -67q69 0 69 37q0 28 -46 40l-129 33q-128 33 -128 142q0 70 43.5 114.5t123.5 54.5v84h123v-91q65 -17 103 -62.5t40 -110.5h-137q-16 57 -92 57q-66 0 -66 -38q0 -22 42 -32l138 -35q123 -31 123 -145
q0 -66 -39.5 -109.5t-111.5 -57.5z" />
    <glyph glyph-name="commaaccent" unicode="&#xf6c3;" horiz-adv-x="897" 
d="M437 -284h-100l32 217h140v-60z" />
    <glyph glyph-name="uniF721" unicode="&#xf721;" horiz-adv-x="586" 
d="M296 -12q-93 0 -146 44.5t-53 120.5v19h-60v74h512v-74h-318v-13q0 -53 72 -53q33 0 50 11.5t17 27.5h138q0 -70 -59 -114q-58 -43 -153 -43zM549 282h-512v74h328v10q0 25 -17.5 40t-52.5 15q-33 0 -49.5 -11.5t-16.5 -28.5h-139q0 70 58 113q59 44 150 44
q95 0 148.5 -43t53.5 -120v-19h49v-74z" />
    <glyph glyph-name="uniF722" unicode="&#xf722;" horiz-adv-x="582" 
d="M262 403v-104h96q53 0 53 52t-53 52h-96zM401 196h-139v-45h106v-85h-106v-66h-142v66h-88v85h88v45h-88v103h88v227h281q71 0 111.5 -45t40.5 -122q0 -76 -40.5 -119.5t-111.5 -43.5z" />
    <glyph glyph-name="uniF725" unicode="&#xf725;" horiz-adv-x="592" 
d="M538 0h-493v123h68v75h-68v111h68v35q0 89 59 141.5t156 52.5t153.5 -53t56.5 -146v-6h-142v6q0 33 -17.5 52t-50.5 19q-73 0 -73 -64v-37h115v-111h-115v-75h283v-123z" />
    <glyph glyph-name="uniF727" unicode="&#xf727;" horiz-adv-x="546" 
d="M347 0h-142v72h-125v85h125v45h-125v85h71l-113 173v66h128l109 -184h5l108 184h120v-66l-112 -173h73v-85h-122v-45h122v-85h-122v-72z" />
    <glyph glyph-name="NULL" horiz-adv-x="0" 
 />
    <glyph glyph-name="CR" horiz-adv-x="333" 
 />
    <glyph glyph-name="brevecap" horiz-adv-x="802" 
d="M402 742q-77 0 -122 35t-45 98v13h121v-12q0 -36 46 -36q45 0 45 36v12h120v-13q0 -63 -44.5 -98t-120.5 -35z" />
    <glyph glyph-name="zero.onum" horiz-adv-x="624" 
d="M414 224v78q0 49 -26.5 78.5t-75.5 29.5t-75.5 -29.5t-26.5 -78.5v-78q0 -49 26.5 -78.5t75.5 -29.5t75.5 29.5t26.5 78.5zM68 232v62q0 118 64.5 181t179.5 63t179.5 -63t64.5 -181v-62q0 -118 -64.5 -181t-179.5 -63t-179.5 63t-64.5 181z" />
    <glyph glyph-name="one.onum" horiz-adv-x="342" 
d="M254 0h-142v334h-66v75l182 117h26v-526z" />
    <glyph glyph-name="two.onum" horiz-adv-x="563" 
d="M504 0h-460v113l259 171q27 19 37.5 32.5t10.5 33.5q0 26 -20 43t-56 17q-42 0 -65 -21.5t-23 -59.5h-142v7q0 93 59 147.5t169 54.5q109 0 164 -55q56 -56 56 -133q0 -100 -114 -165l-100 -57h225v-128z" />
    <glyph glyph-name="three.onum" horiz-adv-x="594" 
d="M297 -172q-115 0 -181 61t-69 175h136q2 -51 31.5 -79.5t83.5 -28.5q48 0 73 23.5t25 64.5q0 82 -101 82h-49v128h48q36 0 58 20t22 58q0 34 -22 56t-62 22q-43 0 -68 -24t-30 -65h-135q10 104 70.5 160.5t161.5 56.5q107 0 165 -55q59 -56 59 -141q0 -50 -18 -83
t-58 -63q44 -19 72.5 -61t28.5 -95q0 -100 -63 -156t-178 -56z" />
    <glyph glyph-name="four.onum" horiz-adv-x="557" 
d="M464 -160h-142v160h-298v113l225 413h126v-51l-189 -347h136v138h142v-138h76v-128h-76v-160z" />
    <glyph glyph-name="five.onum" horiz-adv-x="593" 
d="M291 -172q-103 0 -168 53t-75 148h138q6 -33 34 -53t72 -20q50 0 76.5 32t26.5 91q0 51 -27.5 82.5t-72.5 31.5q-58 0 -91 -47h-136l38 380h392v-128h-282l-13 -118q55 29 121 29q89 0 151 -56t62 -174q0 -120 -66 -185.5t-180 -65.5z" />
    <glyph glyph-name="six.onum" horiz-adv-x="591" 
d="M294 700h130v-51l-131 -195q26 2 35 2q95 0 155 -54q61 -54 61 -163q0 -118 -66.5 -184t-181.5 -66q-112 0 -180 63q-68 65 -68 172q0 94 68 201zM374 312q-27 31 -78 31t-79 -31q-27 -30 -27 -82t27 -83q29 -30 79 -30q51 0 78 30q28 31 28 83q0 53 -28 82z" />
    <glyph glyph-name="seven.onum" horiz-adv-x="546" 
d="M270 -160h-124v51l207 507h-188v-76h-131v204h462v-118z" />
    <glyph glyph-name="eight.onum" horiz-adv-x="620" 
d="M57 202q0 54 28.5 100t71.5 65q-43 32 -63 67t-20 85q0 83 63 139q63 57 173 57t173 -57q63 -56 63 -139q0 -50 -19.5 -85t-61.5 -67q43 -19 71 -65t28 -100q0 -100 -67.5 -157t-186.5 -57t-186 57t-67 157zM405 507q0 39 -24 62t-71 23t-71 -23t-24 -62q0 -44 26 -66.5
t69 -22.5t69 22.5t26 66.5zM200 215q0 -44 29 -71.5t81 -27.5t81 27.5t29 71.5t-30.5 69.5t-79.5 25.5t-79.5 -25.5t-30.5 -69.5z" />
    <glyph glyph-name="nine.onum" horiz-adv-x="601" 
d="M296 -160h-130v51l131 182q-26 -2 -35 -2q-94 0 -156 54q-60 54 -60 163q0 118 66.5 184t181.5 66q113 0 180 -64q68 -63 68 -171q0 -100 -68 -201zM215 214q28 -30 79 -30t78 30q28 31 28 83q0 53 -28 82q-27 31 -78 31t-79 -31q-27 -30 -27 -82q0 -51 27 -83z" />
    <glyph glyph-name="zero.onum.mono" 
d="M64 232v62q0 118 64.5 181t179.5 63t179.5 -63t64.5 -181v-62q0 -118 -64.5 -181t-179.5 -63t-179.5 63t-64.5 181zM308 116q49 0 75.5 29.5t26.5 78.5v88l-149 -187q19 -9 47 -9zM206 302v-89l149 188q-20 9 -47 9q-49 0 -75.5 -29.5t-26.5 -78.5z" />
    <glyph glyph-name="one.onum.mono" 
d="M530 0h-431v128h145v206h-106v75l222 117h26v-398h144v-128z" />
    <glyph glyph-name="two.onum.mono" 
d="M530 0h-460v113l259 171q27 19 37.5 32.5t10.5 33.5q0 26 -20 43t-56 17q-42 0 -65 -21.5t-23 -59.5h-142v7q0 93 59 147.5t169 54.5q109 0 164 -55q56 -56 56 -133q0 -100 -114 -165l-100 -57h225v-128z" />
    <glyph glyph-name="three.onum.mono" 
d="M317 -172q-115 0 -181 61t-69 175h136q2 -51 31.5 -79.5t83.5 -28.5q48 0 73 23.5t25 64.5q0 82 -101 82h-49v128h48q36 0 58 20t22 58q0 34 -22 56t-62 22q-43 0 -68 -24t-30 -65h-135q10 104 70.5 160.5t161.5 56.5q107 0 165 -55q59 -56 59 -141q0 -50 -18 -83
t-58 -63q44 -19 72.5 -61t28.5 -95q0 -100 -63 -156t-178 -56z" />
    <glyph glyph-name="four.onum.mono" 
d="M492 -160h-142v160h-298v113l225 413h126v-51l-189 -347h136v138h142v-138h76v-128h-76v-160z" />
    <glyph glyph-name="five.onum.mono" 
d="M309 -172q-103 0 -168 53t-75 148h138q6 -33 34 -53t72 -20q50 0 76.5 32t26.5 91q0 51 -27.5 82.5t-72.5 31.5q-58 0 -91 -47h-136l38 380h392v-128h-282l-13 -118q55 29 121 29q89 0 151 -56t62 -174q0 -120 -66 -185.5t-180 -65.5z" />
    <glyph glyph-name="six.onum.mono" 
d="M315 700h130v-51l-131 -195q26 2 35 2q95 0 155 -54q61 -54 61 -163q0 -118 -66.5 -184t-181.5 -66q-113 0 -180 63q-68 65 -68 172q0 94 68 201zM395 312q-27 31 -78 31t-79 -31q-27 -30 -27 -82t27 -83q28 -30 79 -30t78 30q28 31 28 83q0 53 -28 82z" />
    <glyph glyph-name="seven.onum.mono" 
d="M316 -160h-124v51l207 507h-188v-76h-131v204h462v-118z" />
    <glyph glyph-name="eight.onum.mono" 
d="M58 202q0 54 28.5 100t71.5 65q-43 32 -63 67t-20 85q0 83 63 139q63 57 173 57t173 -57q63 -56 63 -139q0 -50 -19.5 -85t-61.5 -67q43 -19 71 -65t28 -100q0 -100 -67.5 -157t-186.5 -57t-186 57t-67 157zM406 507q0 39 -24 62t-71 23t-71 -23t-24 -62q0 -44 26 -66.5
t69 -22.5t69 22.5t26 66.5zM201 215q0 -44 29 -71.5t81 -27.5t81 27.5t29 71.5t-30.5 69.5t-79.5 25.5t-79.5 -25.5t-30.5 -69.5z" />
    <glyph glyph-name="nine.onum.mono" 
d="M307 -160h-130v51l131 182q-26 -2 -35 -2q-95 0 -156 54q-60 54 -60 163q0 118 66.5 184t181.5 66q113 0 180 -64q68 -63 68 -171q0 -100 -68 -201zM226 214q28 -30 79 -30t78 30q28 31 28 83q0 53 -28 82q-27 31 -78 31t-79 -31q-27 -30 -27 -82q0 -51 27 -83z" />
    <glyph glyph-name="uniF653.mono" 
d="M386 -5v-84h-123v81q-82 13 -130 64t-50 125h138q13 -67 109 -67q69 0 69 37q0 28 -46 40l-129 33q-128 33 -128 142q0 70 43.5 114.5t123.5 54.5v84h123v-91q65 -17 103 -62.5t40 -110.5h-137q-16 57 -92 57q-66 0 -66 -38q0 -22 42 -32l138 -35q123 -31 123 -145
q0 -66 -39.5 -109.5t-111.5 -57.5z" />
    <glyph glyph-name="uniF64E.mono" 
d="M119 158h-69v85h67v41h-67v85h68q8 80 68 124.5t155 44.5q96 0 152 -46t64 -132h-130q-13 57 -87 57q-76 0 -89 -48h132v-85h-135v-41h135v-85h-129q6 -22 29.5 -35.5t56.5 -13.5q75 0 87 61h131q-8 -85 -66 -133.5t-151 -48.5t-153.5 46t-68.5 124z" />
    <glyph glyph-name="uniF725.mono" 
d="M557 0h-493v123h68v75h-68v111h68v35q0 89 59 141.5t156 52.5t153.5 -53t56.5 -146v-6h-142v6q0 33 -17.5 52t-50.5 19q-73 0 -73 -64v-37h115v-111h-115v-75h283v-123z" />
    <glyph glyph-name="uniF727.mono" 
d="M384 0h-142v72h-125v85h125v45h-125v85h71l-113 173v66h128l109 -184h5l108 184h120v-66l-112 -173h73v-85h-122v-45h122v-85h-122v-72z" />
    <glyph glyph-name="uniF722.mono" 
d="M266 403v-104h96q53 0 53 52t-53 52h-96zM405 196h-139v-45h106v-85h-106v-66h-142v66h-88v85h88v45h-88v103h88v227h281q71 0 111.5 -45t40.5 -122q0 -76 -40.5 -119.5t-111.5 -43.5z" />
    <glyph glyph-name="uniF721.mono" 
d="M317 -12q-93 0 -146 44.5t-53 120.5v19h-60v74h512v-74h-318v-13q0 -53 72 -53q33 0 50 11.5t17 27.5h138q0 -70 -59 -114q-58 -43 -153 -43zM570 282h-512v74h328v10q0 25 -17.5 40t-52.5 15q-33 0 -49.5 -11.5t-16.5 -28.5h-139q0 70 58 113q59 44 150 44
q95 0 148.5 -43t53.5 -120v-19h49v-74z" />
    <glyph glyph-name="zero.mono" 
d="M310 -15q-113 0 -177 63t-64 179v246q0 116 64 179t177 63q115 0 179 -63t64 -179v-246q0 -116 -64 -179t-179 -63zM211 481v-209l165 294q-26 21 -65 21q-47 0 -73.5 -29.5t-26.5 -76.5zM311 113q49 0 74.5 28.5t25.5 76.5v209l-166 -294q26 -20 66 -20z" />
    <glyph glyph-name="one.mono" 
d="M531 0h-431v128h145v379h-106v76l222 117h26v-572h144v-128z" />
    <glyph glyph-name="two.mono" 
d="M534 0h-462v116l211 212q71 71 88 101q19 31 19 70t-21.5 63.5t-65.5 24.5q-95 0 -96 -117h-135q0 113 63 179q64 66 167 66q112 0 170 -64q60 -63 60 -151q0 -72 -30 -123q-31 -52 -112 -128l-126 -121h270v-128z" />
    <glyph glyph-name="three.mono" 
d="M316 -15q-114 0 -180 66t-67 184h136q5 -122 117 -122q47 0 71.5 25t24.5 68t-28.5 67t-80.5 24h-41v129h31q97 0 97 82q0 36 -22 57.5t-60 21.5q-96 0 -100 -117h-136q0 114 62.5 179.5t170.5 65.5q107 0 165 -55q59 -56 59 -140q0 -95 -76 -152q44 -19 72.5 -64.5
t28.5 -101.5q0 -102 -64 -159.5t-180 -57.5z" />
    <glyph glyph-name="four.mono" 
d="M487 0h-142v124h-297v109l224 467h125v-51l-189 -397h137v159h142v-159h77v-128h-77v-124z" />
    <glyph glyph-name="five.mono" 
d="M304 -15q-103 0 -168 56t-75 157h138q5 -38 34.5 -61.5t73.5 -23.5q101 0 101 130q0 56 -25.5 88.5t-71.5 32.5q-64 0 -94 -51h-136l38 387h392v-128h-282l-13 -121q53 29 121 29q90 0 151 -58q62 -57 62 -179q0 -123 -66 -190.5t-180 -67.5z" />
    <glyph glyph-name="six.mono" 
d="M315 700h130v-51l-131 -199q26 2 35 2q95 0 155 -54q61 -54 61 -163q0 -118 -66.5 -184t-181.5 -66q-113 0 -180 63q-68 65 -68 172q0 94 68 201zM395 308q-27 31 -78 31t-79 -31q-27 -30 -27 -82t27 -83q28 -30 79 -30t78 30q28 31 28 83q0 53 -28 82z" />
    <glyph glyph-name="seven.mono" 
d="M322 0h-128v51l202 521h-185v-77h-131v205h462v-120z" />
    <glyph glyph-name="eight.mono" 
d="M58 199q0 55 28 101t72 67q-83 59 -83 152q0 83 63 139q63 57 173 57t173 -57q63 -56 63 -139q0 -93 -81 -152q43 -21 71 -67t28 -101q0 -100 -68 -157t-186 -57t-185.5 57t-67.5 157zM421 213q0 44 -31 70.5t-79 26.5t-79 -26.5t-31 -70.5t29 -72t81 -28t81 28t29 72z
M406 507q0 39 -24 62t-71 23t-71 -23t-24 -62q0 -44 26 -66.5t69 -22.5t69 22.5t26 66.5z" />
    <glyph glyph-name="nine.mono" 
d="M307 0h-130v51l131 199q-30 -2 -35 -2q-95 0 -156 54q-60 54 -60 163q0 118 66.5 184t181.5 66q113 0 180 -64q68 -63 68 -171q0 -94 -68 -201zM226 391q28 -30 79 -30t78 30q28 31 28 83q0 53 -28 82q-27 31 -78 31t-79 -31q-27 -30 -27 -82t27 -83z" />
    <glyph glyph-name="dollar.mono" 
d="M59 227h142q0 -114 118 -114q44 0 68.5 21t24.5 55q0 30 -20 45q-17 14 -45 27l-95 43q-93 43 -135 85q-41 43 -41 121t46.5 132t125.5 69v91h141v-95q68 -17 114 -76q48 -59 48 -152h-142q0 108 -100 108q-39 0 -63.5 -19.5t-24.5 -51.5q0 -34 25 -53q30 -19 66 -35
l11 -5l44 -20q35 -16 44 -21l38 -20q24 -12 37 -23q43 -34 52 -57q19 -42 19 -80q0 -82 -42.5 -138.5t-125.5 -74.5v-108h-141v107q-86 13 -137.5 75.5t-51.5 163.5z" />
    <glyph glyph-name="Euro.mono" 
d="M358 -15q-112 0 -181 56t-78 159h-83v112h84v75h-84v112h85q8 102 75 159t182 57q107 0 178 -62t71 -185v-10h-134v10q0 60 -31.5 89.5t-84.5 29.5q-102 0 -114 -88h142v-112h-143v-75h143v-112h-143q10 -87 115 -87q116 0 116 119v10h134v-10q0 -123 -65.5 -185
t-183.5 -62z" />
    <glyph glyph-name="sterling.mono" 
d="M558 0h-508v128h65v161h-65v128h65v103q0 90 60.5 142.5t163.5 52.5q102 0 160.5 -55t58.5 -157v-33h-142v34q0 83 -79 83q-80 0 -80 -72v-98h120v-128h-120v-161h301v-128z" />
    <glyph glyph-name="yen.mono" 
d="M379 0h-142v93h-155v112h155v75h-155v112h103l-155 257v51h130l149 -263l154 263h128v-51l-160 -257h107v-112h-159v-75h159v-112h-159v-93z" />
    <glyph glyph-name="uni20BD.mono" 
d="M253 0h-142v99h-82v112h82v68h-82v123h82v298h288q95 0 148.5 -56t53.5 -155q0 -97 -53.5 -153.5t-148.5 -56.5h-146v-68h163v-112h-163v-99zM253 577v-175h129q33 0 55 22.5t22 64.5t-22 65t-55 23h-129z" />
    <glyph glyph-name="uni20B4.mono" 
d="M317 -15q-112 0 -180 53q-67 52 -67 141v47h-70v101h622v-101h-410v-30q0 -83 105 -83q49 0 76 22t27 58h142q0 -97 -67 -152q-68 -56 -178 -56zM0 474h413v30q0 83 -105 83q-49 0 -76 -22t-27 -58h-142q0 96 68 152t178 56q114 0 180 -54.5t66 -148.5v-38h67v-101h-622
v101z" />
    <glyph glyph-name="a.alt1" horiz-adv-x="600" 
d="M249 -12q-84 0 -135.5 50t-51.5 143v165q0 92 51.5 142t135.5 50q86 0 151 -59l42 47h81v-526h-81l-42 48q-64 -60 -151 -60zM381 166v194q-50 50 -103 50q-29 0 -51.5 -20.5t-22.5 -54.5v-144q0 -34 22.5 -54.5t51.5 -20.5q53 0 103 50z" />
    <glyph glyph-name="agrave.alt1" horiz-adv-x="600" 
d="M249 -12q-84 0 -135.5 50t-51.5 143v165q0 92 51.5 142t135.5 50q86 0 151 -59l42 47h81v-526h-81l-42 48q-64 -60 -151 -60zM381 166v194q-50 50 -103 50q-29 0 -51.5 -20.5t-22.5 -54.5v-144q0 -34 22.5 -54.5t51.5 -20.5q53 0 103 50zM374 590h-114l-79 91v49h128z
" />
    <glyph glyph-name="aacute.alt1" horiz-adv-x="600" 
d="M249 -12q-84 0 -135.5 50t-51.5 143v165q0 92 51.5 142t135.5 50q86 0 151 -59l42 47h81v-526h-81l-42 48q-64 -60 -151 -60zM381 166v194q-50 50 -103 50q-29 0 -51.5 -20.5t-22.5 -54.5v-144q0 -34 22.5 -54.5t51.5 -20.5q53 0 103 50zM349 590h-113l65 140h128v-49z
" />
    <glyph glyph-name="acircumflex.alt1" horiz-adv-x="600" 
d="M249 -12q-84 0 -135.5 50t-51.5 143v165q0 92 51.5 142t135.5 50q86 0 151 -59l42 47h81v-526h-81l-42 48q-64 -60 -151 -60zM381 166v194q-50 50 -103 50q-29 0 -51.5 -20.5t-22.5 -54.5v-144q0 -34 22.5 -54.5t51.5 -20.5q53 0 103 50zM266 590h-106v45l91 95h112
l92 -95v-45h-108l-41 46z" />
    <glyph glyph-name="atilde.alt1" horiz-adv-x="600" 
d="M249 -12q-84 0 -135.5 50t-51.5 143v165q0 92 51.5 142t135.5 50q86 0 151 -59l42 47h81v-526h-81l-42 48q-64 -60 -151 -60zM381 166v194q-50 50 -103 50q-29 0 -51.5 -20.5t-22.5 -54.5v-144q0 -34 22.5 -54.5t51.5 -20.5q53 0 103 50zM210 581l-85 50q46 106 122 106
q27 0 62 -20l24 -15q23 -13 34 -13t19.5 8.5t21.5 32.5l85 -50q-47 -105 -122 -105q-30 0 -62 20l-24 15q-23 12 -34 12t-19.5 -8.5t-21.5 -32.5z" />
    <glyph glyph-name="adieresis.alt1" horiz-adv-x="600" 
d="M249 -12q-84 0 -135.5 50t-51.5 143v165q0 92 51.5 142t135.5 50q86 0 151 -59l42 47h81v-526h-81l-42 48q-64 -60 -151 -60zM381 166v194q-50 50 -103 50q-29 0 -51.5 -20.5t-22.5 -54.5v-144q0 -34 22.5 -54.5t51.5 -20.5q53 0 103 50zM260 595h-142v110h142v-110z
M467 595h-142v110h142v-110z" />
    <glyph glyph-name="aring.alt1" horiz-adv-x="600" 
d="M249 -12q-84 0 -135.5 50t-51.5 143v165q0 92 51.5 142t135.5 50q86 0 151 -59l42 47h81v-526h-81l-42 48q-64 -60 -151 -60zM381 166v194q-50 50 -103 50q-29 0 -51.5 -20.5t-22.5 -54.5v-144q0 -34 22.5 -54.5t51.5 -20.5q53 0 103 50zM288 648q13 -12 29 -6.5t20 19.5
t-8 27q-12 12 -27.5 6.5t-20 -19t6.5 -27.5zM387 594q-31 -30 -78 -30q-46 0 -79 30q-32 31 -32 74t32 73q32 31 79 31t78 -31q33 -30 33 -73t-33 -74z" />
    <glyph glyph-name="amacron.alt1" horiz-adv-x="600" 
d="M249 -12q-84 0 -135.5 50t-51.5 143v165q0 92 51.5 142t135.5 50q86 0 151 -59l42 47h81v-526h-81l-42 48q-64 -60 -151 -60zM381 166v194q-50 50 -103 50q-29 0 -51.5 -20.5t-22.5 -54.5v-144q0 -34 22.5 -54.5t51.5 -20.5q53 0 103 50zM472 595h-331v110h331v-110z" />
    <glyph glyph-name="aogonek.alt1" horiz-adv-x="600" 
d="M559 -160h-58q-49 0 -77.5 19.5t-28.5 53.5q0 40 47 87l-42 48q-64 -60 -151 -60q-84 0 -135.5 50t-51.5 143v165q0 92 51.5 142t135.5 50q86 0 151 -59l42 47h81v-526q-35 -29 -35 -53q0 -22 41 -22h30v-85zM381 166v194q-50 50 -103 50q-29 0 -51.5 -20.5t-22.5 -54.5
v-144q0 -34 22.5 -54.5t51.5 -20.5q53 0 103 50z" />
    <glyph glyph-name="t.alt1" horiz-adv-x="370" 
d="M256 0h-142v403h-84v123h84v179h142v-179h84v-123h-84v-403z" />
    <glyph glyph-name="tcaron.alt1" horiz-adv-x="540" 
d="M256 0h-142v403h-84v123h84v179h142v-179h84v-123h-84v-403zM492 488h-100l32 217h140v-60z" />
    <glyph glyph-name="J.alt1" horiz-adv-x="575" 
d="M17 210v32h155v-26q0 -44 24.5 -66.5t67.5 -22.5t67.5 22.5t24.5 66.5v349h-197v135h352v-490q0 -114 -69 -170q-67 -55 -178 -55t-179 55q-68 56 -68 170z" />
    <glyph glyph-name="ampersand.alt1" horiz-adv-x="647" 
d="M411 204h-58v136h276v-136h-60q-8 -101 -80 -159q-72 -57 -186 -57q-117 0 -190 60q-73 61 -73 165q0 113 88 173q-52 53 -52 128q0 90 61 142q62 53 161 53q105 0 164.5 -58.5t58.5 -160.5h-158q0 79 -63 79q-27 0 -43.5 -17t-16.5 -44t17.5 -43t50.5 -16h7v-136h-27
q-40 0 -65 -24.5t-25 -65.5q0 -40 28.5 -66.5t78.5 -26.5q51 0 78.5 20t27.5 54z" />
    <glyph glyph-name="ampersand.alt2" horiz-adv-x="629" 
d="M390 700v-136h-98q-22 0 -37 -16t-15 -45t15 -44t37 -15h85l69 76h89v-76h69v-136h-69v-308h-234q-129 0 -192.5 51t-63.5 156q0 57 28 103t72 65q-72 45 -72 140q0 89 57.5 137t159.5 48h100zM285 141h92v167h-92q-31 0 -51.5 -21.5t-20.5 -63.5q0 -40 20.5 -61
t51.5 -21z" />
    <glyph glyph-name="uni0430.alt1" horiz-adv-x="600" 
d="M249 -12q-84 0 -135.5 50t-51.5 143v165q0 92 51.5 142t135.5 50q86 0 151 -59l42 47h81v-526h-81l-42 48q-64 -60 -151 -60zM381 166v194q-50 50 -103 50q-29 0 -51.5 -20.5t-22.5 -54.5v-144q0 -34 22.5 -54.5t51.5 -20.5q53 0 103 50z" />
    <glyph glyph-name="at.alt1" horiz-adv-x="752" 
d="M451 227q62 0 101 46v53h-96q-66 0 -66 -49q0 -50 61 -50zM455 433h97v13q0 63 -36 99.5t-99 36.5h-82q-68 0 -107 -39.5t-39 -107.5v-325q0 -68 39 -107.5t107 -39.5h107v-123h-107q-128 0 -198 76q-71 76 -71 194v325q0 118 71 194q70 76 198 76h82q128 0 198 -76
q71 -76 71 -194v-325h-77l-39 48q-60 -60 -148 -60q-73 0 -119.5 45t-46.5 125q0 78 51.5 121.5t147.5 43.5z" />
    <glyph glyph-name="uni0423.alt1" horiz-adv-x="602" 
d="M148 0h-13v142h32q41 0 74 62l-234 445v51h143l164 -329l146 329h135v-51l-200 -449q-23 -52 -49 -98q-21 -36 -47 -60q-27 -24 -61 -33t-90 -9z" />
    <glyph glyph-name="uni040E.alt1" horiz-adv-x="602" 
d="M148 0h-13v142h32q41 0 74 62l-234 445v51h143l164 -329l146 329h135v-51l-200 -449q-23 -52 -49 -98q-21 -36 -47 -60q-27 -24 -61 -33t-90 -9zM307 742q-77 0 -122 35t-45 98v13h121v-12q0 -36 46 -36q45 0 45 36v12h120v-13q0 -63 -44.5 -98t-120.5 -35z" />
    </font>
</defs>
</svg>
